<?xml version="1.0" standalone="no"?>
<!DOCTYPE svg PUBLIC "-//W3C//DTD SVG 1.1//EN" "http://www.w3.org/Graphics/SVG/1.1/DTD/svg11.dtd">
<svg xmlns="http://www.w3.org/2000/svg">
<metadata>Copyright (C) 2015 by original authors @ fontello.com</metadata>
<defs>
<font id="fontello" horiz-adv-x="1000" >
<font-face font-family="fontello" font-weight="400" font-stretch="normal" units-per-em="1000" ascent="850" descent="-150" />
<missing-glyph horiz-adv-x="1000" />
<glyph glyph-name="one" unicode="&#xe801;" d="m445 915h4q19-4 19-20v-3q0-18-74-53 0-2-213-125v-707q-4-20-19-20h-4q-20 4-20 20v722q0 17 69 49 200 120 238 137z" horiz-adv-x="732.4" />
<glyph glyph-name="two" unicode="&#xe802;" d="m443 913h4q20-4 20-19v-4q0-17-74-53 0-2-213-125v-55h2q157 92 164 92h4q19-4 19-20v-3q0-17-80-57-108-64-109-67v-595q-4-20-20-20h-4q-19 4-19 20v720q0 16 60 45 211 125 246 141z" horiz-adv-x="732.4" />
<glyph glyph-name="three" unicode="&#xe803;" d="m443 913h4q20-4 20-19v-4q0-17-74-53 0-2-213-125v-57q256 151 263 151h4q20-4 20-20v-4q0-17-74-53 0-2-213-125v-597q-4-20-20-20h-4q-19 4-19 20v720q0 16 60 45 211 125 246 141z" horiz-adv-x="732.4" />
<glyph glyph-name="four" unicode="&#xe804;" d="m443 913h4q20-4 20-19v-4q0-17-74-53 0-2-213-125v-57q256 151 263 151h4q20-4 20-20v-4q0-17-74-53 0-2-213-125v-56q155 92 166 94h4q19-4 19-20v-4q0-16-80-57-108-63-109-66v-488q-4-20-20-20h-4q-19 4-19 20v720q0 16 60 45 211 125 246 141z" horiz-adv-x="732.4" />
<glyph glyph-name="five" unicode="&#xe805;" d="m443 914h4q20-4 20-20v-3q0-18-74-53 0-2-213-125v-57q256 151 263 151h4q20-4 20-20v-4q0-17-74-53 0-2-213-125v-56q256 150 263 150h4q20-4 20-19v-4q0-17-74-53 0-2-213-125v-490q-4-20-20-20h-4q-19 4-19 20v720q0 16 60 45 211 125 246 141z" horiz-adv-x="732.4" />
<glyph glyph-name="six" unicode="&#xe806;" d="m443 913h4q20-4 20-19v-4q0-17-74-53 0-2-213-125v-57q256 151 263 151h4q20-4 20-20v-4q0-17-74-53 0-2-213-125v-56q256 150 263 150h4q20-4 20-19v-4q0-17-74-53 0-2-213-125v-57q155 92 166 94h4q19-4 19-19v-4q0-17-80-57-108-63-109-66v-381q-4-20-20-20h-4q-19 4-19 20v720q0 16 60 45 211 125 246 141z" horiz-adv-x="732.4" />
<glyph glyph-name="seven" unicode="&#xe807;" d="m443 913h4q20-4 20-19v-4q0-17-74-53 0-2-213-125v-57q256 151 263 151h4q20-4 20-20v-4q0-17-74-53 0-2-213-125v-56q256 150 263 150h4q20-4 20-19v-4q0-17-74-53 0-2-213-125v-57q256 151 263 151h4q20-4 20-20v-4q0-17-74-52 0-2-213-125v-383q-4-20-20-20h-4q-19 4-19 20v720q0 16 60 45 211 125 246 141z" horiz-adv-x="732.4" />
<glyph glyph-name="eight" unicode="&#xe808;" d="m443 913h4q20-4 20-19v-4q0-17-74-53 0-2-213-125v-57q256 151 263 151h4q20-4 20-20v-4q0-17-74-53 0-2-213-125v-56q256 150 263 150h4q20-4 20-19v-4q0-17-74-53 0-2-213-125v-57q256 151 263 151h4q20-4 20-20v-4q0-17-74-52 0-2-213-125v-57q155 92 166 94h4q19-4 19-20v-4q0-16-80-56-108-64-109-67v-273q-4-20-20-20h-4q-19 4-19 20v720q0 16 60 45 211 125 246 141z" horiz-adv-x="732.4" />
<glyph glyph-name="nine" unicode="&#xe809;" d="m156 917h309v-4q-281-159-285-166v-680q-4-19-20-19h-4q-19 4-19 19v830q4 20 19 20z" horiz-adv-x="732.4" />
<glyph glyph-name="colon" unicode="&#xe80a;" d="m156 917h309v-4q-281-159-285-166v-47q155 92 166 94h4q19-4 19-20v-4q0-16-80-56-108-64-109-67v-580q-4-19-20-19h-4q-19 4-19 19v830q4 20 19 20z" horiz-adv-x="732.4" />
<glyph glyph-name="semicolon" unicode="&#xe80b;" d="m156 917h309v-4q-281-159-285-166v-47q256 151 263 151h4q20-4 20-20v-4q0-17-74-53 0-2-213-125v-582q-4-19-20-19h-4q-19 4-19 19v830q4 20 19 20z" horiz-adv-x="732.4" />
<glyph glyph-name="less" unicode="&#xe80c;" d="m156 917h309v-4q-281-159-285-166v-47q256 151 263 151h4q20-4 20-20v-4q0-17-74-53 0-2-213-125v-47q155 92 166 94h4q19-4 19-19v-4q0-17-80-57-108-63-109-66v-483q-4-19-20-19h-4q-19 4-19 19v830q4 20 19 20z" horiz-adv-x="732.4" />
<glyph glyph-name="equal" unicode="&#xe80d;" d="m156 917h309v-4q-281-159-285-166v-47q256 151 263 151h4q20-4 20-20v-4q0-17-74-53 0-2-213-125v-47q256 151 263 151h4q20-4 20-20v-4q0-17-74-52 0-2-213-125v-485q-4-19-20-19h-4q-19 4-19 19v830q4 20 19 20z" horiz-adv-x="732.4" />
<glyph glyph-name="greater" unicode="&#xe80e;" d="m137 897q4 20 19 20h309v-6q-281-160-285-166v-45q256 151 263 151h4q20-4 20-20v-6q0-17-74-53 0-2-213-125v-45q145 86 164 94 95 54 99 54h4q20-3 20-19v-4q0-17-74-53 0-2-213-125v-47q155 92 166 94h4q19-4 19-19v-4q0-17-80-57-108-63-109-66v-385q-4-20-20-20h-4q-19 4-19 20v832z" horiz-adv-x="732.4" />
<glyph glyph-name="question" unicode="&#xe80f;" d="m156 917h309v-4q-281-159-285-166v-47q256 151 263 151h4q20-4 20-20v-4q0-17-74-53 0-2-213-125v-47q256 151 263 151h4q20-4 20-20v-4q0-17-74-52 0-2-213-125v-47q256 150 263 150h4q20-4 20-19v-4q0-17-74-53 0-2-213-125v-387q-4-19-20-19h-4q-19 4-19 19v830q4 20 19 20z" horiz-adv-x="732.4" />
<glyph glyph-name="at" unicode="&#xe810;" d="m156 917h309v-4q-281-159-285-166v-47q256 151 263 151h4q20-4 20-20v-4q0-17-74-53 0-2-213-125v-47q256 151 263 151h4q20-4 20-20v-4q0-17-74-52 0-2-213-125v-47q256 150 263 150h4q20-4 20-19v-4q0-17-74-53 0-2-213-125v-47q155 92 166 94h4q19-4 19-20v-4q0-16-80-56-108-64-109-67v-287q-4-19-20-19h-4q-19 4-19 19v830q4 20 19 20z" horiz-adv-x="732.4" />
<glyph glyph-name="A" unicode="&#xe811;" d="m156 917h309v-4q-281-159-285-166v-47q256 151 263 151h4q20-4 20-20v-4q0-17-74-53 0-2-213-125v-47q256 151 263 151h4q20-4 20-20v-4q0-17-74-52 0-2-213-125v-47q256 150 263 150h4q20-4 20-19v-4q0-17-74-53 0-2-213-125v-47q256 151 263 151h4q20-4 20-20v-4q0-17-74-53 0-2-213-125v-289q-4-19-20-19h-4q-19 4-19 19v830q4 20 19 20z" horiz-adv-x="732.4" />
<glyph glyph-name="B" unicode="&#xe812;" d="m156 917h309v-4q-281-159-285-166v-47q256 151 263 151h4q20-4 20-20v-4q0-17-74-53 0-2-213-125v-47q256 151 263 151h4q20-4 20-20v-4q0-17-74-52 0-2-213-125v-47q256 150 263 150h4q20-4 20-19v-4q0-17-74-53 0-2-213-125v-47q256 151 263 151h4q20-4 20-20v-4q0-17-74-53 0-2-213-125v-46q155 91 166 93h4q19-4 19-19v-4q0-17-80-57-108-63-109-66v-190q-4-19-20-19h-4q-19 4-19 19v830q4 20 19 20z" horiz-adv-x="732.4" />
<glyph glyph-name="C" unicode="&#xe813;" d="m156 917h309v-4q-282-160-283-164h283v-4q-281-159-285-166v-512q-4-19-20-19h-4q-19 4-19 19v830q4 20 19 20z" horiz-adv-x="732.4" />
<glyph glyph-name="D" unicode="&#xe814;" d="m156 917h309v-4q-282-160-283-164h283v-4q-281-159-285-166v-45q155 92 166 94h4q19-4 19-20v-4q0-16-80-56-108-64-109-67v-414q-4-19-20-19h-4q-19 4-19 19v830q4 20 19 20z" horiz-adv-x="732.4" />
<glyph glyph-name="E" unicode="&#xe815;" d="m156 919h309v-4q-282-160-283-164h283v-3q-281-160-285-167v-44q256 150 263 150h4q20-4 20-20v-3q0-18-74-53 0-2-213-125v-416q-4-20-20-20h-4q-19 4-19 20v830q4 19 19 19z" horiz-adv-x="732.4" />
<glyph glyph-name="F" unicode="&#xe816;" d="m156 917h309v-4q-282-160-283-164h283v-4q-281-159-285-166v-45q256 151 263 151h4q20-4 20-20v-4q0-17-74-53 0-2-213-125v-47q155 92 166 94h4q19-4 19-19v-4q0-17-80-57-108-63-109-66v-317q-4-19-20-19h-4q-19 4-19 19v830q4 20 19 20z" horiz-adv-x="732.4" />
<glyph glyph-name="G" unicode="&#xe817;" d="m156 917h309v-4q-282-160-283-164h283v-4q-281-159-285-166v-45q256 151 263 151h4q20-4 20-20v-4q0-17-74-53 0-2-213-125v-47q256 151 263 151h4q20-4 20-20v-4q0-17-74-52 0-2-213-125v-319q-4-19-20-19h-4q-19 4-19 19v830q4 20 19 20z" horiz-adv-x="732.4" />
<glyph glyph-name="H" unicode="&#xe818;" d="m156 917h309v-4q-282-160-283-164h283v-4q-281-159-285-166v-45q256 151 263 151h4q20-4 20-20v-4q0-17-74-53 0-2-213-125v-47q256 151 263 151h4q20-4 20-20v-4q0-17-74-52 0-2-213-125v-47q155 92 166 94h4q19-4 19-20v-4q0-16-80-57-108-63-109-66v-219q-4-19-20-19h-4q-19 4-19 19v830q4 20 19 20z" horiz-adv-x="732.4" />
<glyph glyph-name="I" unicode="&#xe819;" d="m156 917h309v-4q-282-160-283-164h283v-4q-281-159-285-166v-45q256 151 263 151h4q20-4 20-20v-4q0-17-74-53 0-2-213-125v-47q256 151 263 151h4q20-4 20-20v-4q0-17-74-52 0-2-213-125v-47q256 150 263 150h4q20-4 20-19v-4q0-17-74-53 0-2-213-125v-221q-4-19-20-19h-4q-19 4-19 19v830q4 20 19 20z" horiz-adv-x="732.4" />
<glyph glyph-name="J" unicode="&#xe81a;" d="m156 917h309v-4q-282-160-283-164h283v-4q-281-159-285-166v-45q256 151 263 151h4q20-4 20-20v-4q0-17-74-53 0-2-213-125v-47q256 151 263 151h4q20-4 20-20v-4q0-17-74-52 0-2-213-125v-47q256 150 263 150h4q20-4 20-19v-4q0-17-74-53 0-2-213-125v-47q154 90 168 94h2q19-5 19-22v-2q0-18-62-46l-127-77v-121q-4-19-20-19h-4q-19 4-19 19v830q4 20 19 20z" horiz-adv-x="732.4" />
<glyph glyph-name="K" unicode="&#xe81b;" d="m156 917h309v-3q-282-161-283-165h283v-3q-281-160-285-166v-45q256 150 263 150h4q20-4 20-20v-3q0-18-74-53 0-2-213-125v-47q256 150 263 150h4q20-4 20-19v-4q0-17-74-53 0-2-213-125v-47q256 151 263 151h4q20-4 20-20v-4q0-17-74-52 0-2-213-125v-49q256 150 263 150h4q20-4 20-19v-4q0-17-74-53 0-2-213-125v-121q-4-20-20-20h-4q-19 4-19 20v830q4 19 19 19z" horiz-adv-x="732.4" />
<glyph glyph-name="L" unicode="&#xe81c;" d="m156 916h309v-3q-282-161-283-165h283v-3q-281-160-285-166v-45q256 150 263 150h4q20-4 20-19v-4q0-17-74-53 0-2-213-125v-47q256 150 263 150h4q20-4 20-19v-4q0-17-74-53 0-2-213-125v-47q256 151 263 151h4q20-4 20-20v-4q0-17-74-52 0-2-213-125v-49q256 150 263 150h4q20-4 20-19v-4q0-17-74-53 0-2-213-125v-47q154 89 168 94h2q19-5 19-22v-2q0-18-62-46l-127-77v-21q-4-20-20-20h-4q-19 4-19 20v830q4 19 19 19z" horiz-adv-x="732.4" />
<glyph glyph-name="M" unicode="&#xe81d;" d="m689 548q0-58-42-100t-103-42-102 42-42 100q0 57 42 99t102 42 103-42 42-99z" horiz-adv-x="1097.2" />
<glyph glyph-name="N" unicode="&#xe81e;" d="m511 548q0-58-42-100t-102-42-103 42-41 100q0 57 41 99t103 42 102-42 42-99z m357 0q0-58-42-100t-102-42-102 42-42 100q0 57 42 99t102 42 102-42 42-99z" horiz-adv-x="1097.2" />
<glyph glyph-name="O" unicode="&#xe81f;" d="m512 405q0-56-41-96t-97-40q-59 0-99 40t-40 96q0 54 40 94t99 41q57 0 97-41t41-94z m173 281q0-55-40-95t-98-40q-59 0-98 40t-40 95q0 56 40 96t98 40q58 0 98-40t40-96z m166-281q0-56-40-96t-98-40q-58 0-97 40t-40 96q0 54 40 94t97 41q58 0 98-41t40-94z" horiz-adv-x="1097.2" />
<glyph glyph-name="P" unicode="&#xe820;" d="m689 781q0-55-41-95t-97-40q-58 0-98 40t-40 95q0 56 40 96t98 39q57 0 97-39t41-96z m-4-472q0-56-40-96t-97-40q-58 0-98 40t-40 96q0 54 40 94t98 40q57 0 97-40t40-94z m-226 240q0-55-40-95t-97-40q-58 0-98 40t-40 95q0 55 40 95t98 40q57 0 97-40t40-95z m446-3q0-55-40-95t-97-39q-58 0-98 39t-40 95q0 56 40 95t98 40q57 0 97-40t40-95z" horiz-adv-x="1097.2" />
<glyph glyph-name="Q" unicode="&#xe821;" d="m385 546q0-53-38-92t-94-39q-56 0-94 39t-39 92 39 92 94 38q55 0 94-38t38-92z m291-281q0-54-39-92t-94-39-94 39-38 92q0 52 38 91t94 38 94-38 39-91z m0 561q0-53-38-91t-94-39-95 39-38 91q0 53 38 92t95 38 94-38 38-92z m291-280q0-53-39-92t-94-39-94 39-38 92 38 92 94 38 94-38 39-92z m-291-131h-265v261h265v-261z" horiz-adv-x="1097.2" />
<glyph glyph-name="R" unicode="&#xe822;" d="m470 810q0-58-42-100t-103-42q-61 0-103 42t-42 100q0 58 42 100t103 43q60 0 103-43t42-100z m437 1q0-59-42-101t-103-42q-61 0-103 42t-42 101q0 58 42 100t103 42q60 0 103-42t42-100z m-432-355q0-59-43-101t-102-42q-61 0-103 42t-42 101q0 58 42 100t103 42q60 0 102-42t43-100z m437 0q0-58-43-100t-102-42q-61 0-103 42t-41 100q0 58 41 100t103 43q60 0 102-43t43-100z m-437-353q0-58-43-100t-102-42q-61 0-103 42t-42 100 42 100 103 43q60 0 102-43t43-100z m437 0q0-58-43-100t-102-42q-61 0-103 42t-41 100 41 101 103 42q60 0 102-42t43-101z" horiz-adv-x="1097.2" />
<glyph glyph-name="S" unicode="&#xe823;" d="m547 122l300 422-593-2z m129 667q0-52-38-89t-91-38q-55 0-92 38t-37 89 37 89 92 38q54 0 91-38t38-89z m-544-149h829v-74l-414-590-415 587v77z m544 149q0-52-38-89t-91-38q-55 0-92 38t-37 89 37 89 92 38q54 0 91-38t38-89z" horiz-adv-x="1097.2" />
<glyph glyph-name="T" unicode="&#xe824;" d="m859 646h92v-97q0-92-65-157t-160-66q-94 0-160 66t-66 157v0q0 57-40 96t-94 40q-54 0-94-40t-39-96v-97h-92v97q0 92 65 157t160 66q94 0 160-66t66-142h0q0-72 40-112t94-39q54 0 94 39t39 97v97z m0 0h92v-97q0-92-65-157t-160-66q-94 0-160 66t-66 157v0q0 57-40 96t-94 40q-54 0-94-40t-39-96v-97h-92v97q0 92 65 157t160 66q94 0 160-66t66-142h0q0-72 40-112t94-39q54 0 94 39t39 97v97z m-430-36q25-25 25-60t-25-60-60-25-60 25-24 60 24 60 60 24 60-24z" horiz-adv-x="1097.2" />
<glyph glyph-name="U" unicode="&#xe825;" d="m859 646h92v-97q0-92-65-157t-160-66q-94 0-160 66t-66 157v0q0 57-40 96t-94 40q-54 0-94-40t-39-96v-97h-92v97q0 92 65 157t160 66q94 0 160-66t66-142h0q0-72 40-112t94-39q54 0 94 39t39 97v97z m-430-36q25-25 25-60t-25-60-60-25-60 25-24 60 24 60 60 24 60-24z m360 1q25-25 25-60t-25-60-60-24-60 24-24 60 24 60 60 25 60-25z" horiz-adv-x="1097.2" />
<glyph glyph-name="V" unicode="&#xe826;" d="m700 512l228 227-91 91-291-290-285 287-90-90 223-225h-255v-126h254l-227-227 91-91 289 290 295-292 83 95-224 225h255v126h-255z m-24 277q0-52-38-89t-91-38q-55 0-92 38t-37 89 37 89 92 38q54 0 91-38t38-89z" horiz-adv-x="1097.2" />
<glyph glyph-name="W" unicode="&#xe827;" d="m700 595l228 227-91 91-291-290-285 287-90-90 223-225h-255v-126h254l-227-227 91-91 289 290 295-292 83 95-224 225h255v126h-255z" horiz-adv-x="1097.2" />
<glyph glyph-name="X" unicode="&#xe828;" d="m507 754l-131-169h161v-68h-160l138-166-96-27-127 154-122-156-97 26 132 169h-161v68h159l-137 166 96 27 127-154 122 156z m511 0l-132-169h161v-68h-159l137-166-96-27-127 154-122-156-96 26 131 169h-161v68h159l-137 166 96 27 127-154 122 156z" horiz-adv-x="1097.2" />
<glyph glyph-name="Y" unicode="&#xe829;" d="m369 562l117 122h-136v61h136l-117 121 45 46 147-152 147 152 44-46-117-121h137v-61h-137l117-122-44-45-147 151-147-151z m166-63l-115-121h134v-62h-134l115-120-44-47-145 152-144-152-44 47 115 120h-134v62h134l-115 121 44 46 144-151 145 151z m441-121v-62h-133l113-120-43-47-143 152-143-152-43 47 113 120h-132v62h132l-113 121 43 46 143-151 143 151 43-46-113-121h133z" horiz-adv-x="1097.2" />
<glyph glyph-name="Z" unicode="&#xe82a;" d="m400 683l45 45h-65v83h65l-45 45 60 61 87-87 87 87 60-61-45-45h65v-83h-65l45-45-60-61-87 87-87-87z m558-120v-83h-65l45-45-61-61-86 87-87-87-61 61 46 45h-65v83h65l-46 45 61 61 87-87 86 87 61-60-45-46h65z m-567-189l-87 87-87-87-61 61 46 45h-65v83h65l-46 46 61 60 87-87 87 87 60-60-45-46h65v-83h-65l45-45z m303-13l-45-46h65v-83h-65l45-45-60-61-87 87-87-87-60 61 45 45h-65v83h65l-45 46 60 60 87-86 87 86z" horiz-adv-x="1097.2" />
<glyph glyph-name="bracketleft" unicode="&#xe82b;" d="m555 56l259 296h-518z m-403 422h806v-126l-403-474-403 474v126z m186 56l127 126h-181v73h181l-127 127 54 54 163-164 163 164 54-54-127-127h180v-73h-180l127-126-54-54-163 163-163-163z" horiz-adv-x="1097.2" />
<glyph glyph-name="backslash" unicode="&#xe82c;" d="m719 562q181 0 181-184v-144q0-183-181-183h-535v121h551q34-3 34 37v195q0 36-29 36h-387v1h12q-181 0-181 184v144q0 184 181 184h535l0-122h-551q-34 3-34-37v-194q0-37 30-37h380l1-1h-7z" horiz-adv-x="1097.2" />
<glyph glyph-name="bracketright" unicode="&#xe82d;" d="m737 147v149q0 25-21 25h-55v-198h52q24-3 24 24z m-344 274h93v199h-89q-25 3-25-24v-150q0-25 21-25z m297-49q151 0 151-145v-109q0-145-151-145h-39v-115h-175v115h-227l0 101h227v198h-89v1h13q-151 0-151 144v110q0 144 151 144h76v56h-76l164 229 163-229h-76v-56h190v-100h-190v-198h52v-1h-13z" horiz-adv-x="1097.2" />
<glyph glyph-name="asciicircum" unicode="&#xe82e;" d="m678 432h77v40h-129q15-7 52-40z m-284 29q-38 19-65 40h-208v83h123q-33 40-33 134 0 108 72 172 73 64 180 64 82 0 139-30 54-29 106-90l-66-88q-44 46-84 73-38 25-93 25-60 0-98-33-38-32-38-83 0-63 43-99 35-27 67-45h302v105l228-215-228-217v120h-19q15-30 15-104 0-125-76-194-77-69-190-69-42 0-81 7-39 7-72 23-32 15-63 41-29 25-63 68l84 92q47-59 94-91 43-30 102-30 66 0 106 35 39 36 39 106 0 68-36 100-15 12-21 16h-439v84h273z" horiz-adv-x="1097.2" />
<glyph glyph-name="underscore" unicode="&#xe82f;" d="m121 584h123q-33 40-33 134 0 108 72 172 73 64 180 64 82 0 139-30 54-29 106-90l-66-88q-44 46-84 73-38 25-93 25-60 0-98-33-38-32-38-83 0-63 43-99 35-27 67-45h302v105l228-215-228-217v120h-19q15-30 15-104 0-125-76-194-77-69-190-69-42 0-81 7-39 7-72 23-32 15-63 41-29 25-63 68l84 92q47-59 94-91 43-30 102-30 66 0 106 35 39 36 39 106 0 68-36 100-15 12-21 16h-439v207z" horiz-adv-x="1097.2" />
<glyph glyph-name="grave" unicode="&#xe830;" d="m545 932q160 0 272-113t112-270q0-157-112-269t-272-113q-160 0-272 113t-112 269q0 157 112 270t272 113z m2-642q105 0 180 75t75 182q0 106-75 181t-180 75q-105 0-179-75t-74-181q0-107 74-182t179-75z" horiz-adv-x="1097.2" />
<glyph glyph-name="a" unicode="&#xe831;" d="m547 803q-105 0-179-75-74-75-74-181 0-107 74-182 74-75 179-75v513z m-2 129q160 0 272-113t112-270q0-157-112-269t-272-113q-160 0-272 113t-112 269q0 157 112 270t272 113z" horiz-adv-x="1097.2" />
<glyph glyph-name="b" unicode="&#xe832;" d="m545 932q160 0 272-113t112-270q0-157-112-269t-272-113q-160 0-272 113t-112 269q0 157 112 270t272 113z" horiz-adv-x="1097.2" />
<glyph glyph-name="c" unicode="&#xe833;" d="m969 718v-106h-844v106h844z m-844-341v108h844v-108h-844z" horiz-adv-x="1097.2" />
<glyph glyph-name="d" unicode="&#xe834;" d="m979 498h-867v103h867v-103z m0 229h-867v103h867v-103z m0-458h-867v103h867v-103z" horiz-adv-x="1097.2" />
<glyph glyph-name="e" unicode="&#xe835;" d="m758 209h84v-171h-182v100l-241 253 251 248h-309v-672h-122v789h613v-105l-264-261z m-109 742v-156h-226v156h226z" horiz-adv-x="1097.2" />
<glyph glyph-name="f" unicode="&#xe836;" d="m416 667h260l-127 127z m496-90h-737l375 359z m-363-274l127 127h-260z m1-141l-375 359h737z" horiz-adv-x="1097.2" />
<glyph glyph-name="g" unicode="&#xe837;" d="m1002 227h-911v647h110v-545h693v545h108v-647z" horiz-adv-x="1097.2" />
<glyph glyph-name="h" unicode="&#xe838;" d="m312 572l235 256h-236z m460-14l-240-291 241 1z m-350-296l351 417v245h101v-750h-452v88z m-212 662h452v-86l-2-7-349-396-1-261h-100v750z" horiz-adv-x="1097.2" />
<glyph glyph-name="i" unicode="&#xe839;" d="m546 336q39 0 67 29t28 69q0 42-28 70t-67 28q-39 0-67-28t-29-70q0-41 29-69t67-29z m231 98q0-3 0-5t-1 37l1 1q0-130-64-213t-140-146-139-101l-158-96q148 160 157 228t6 93q-52 24-88 79t-36 123q0 30 9 63 22 80 87 151t133 126 123 87l147 89q-143-156-155-221t-8-92q51-24 89-79t37-124z" horiz-adv-x="1097.2" />
<glyph glyph-name="j" unicode="&#xe83a;" d="m280 173h-82v616l7 8q78 123 180 123h1q61 0 106-34t53-45q69 83 162 79 83-4 131-61t59-74l-82-48q0 24-32 64t-80 42q-59 2-123-87l-35-50-31 47-40 45t-88 45h0q-54 0-106-77v-593z" horiz-adv-x="1097.2" />
<glyph glyph-name="k" unicode="&#xe83b;" d="m748 465q63 0 107 34t45 79q0 44-45 78t-107 35q-63 0-108-34t-44-79q0-45 44-79t108-34z m-403 0q63 0 108 34t45 79q0 44-45 78t-108 35q-64 0-109-35t-45-78q0-45 45-79t109-34z m403 322q98 0 168-61t71-148q0-88-71-148t-168-61q-153 0-202 92-49-92-201-92-99 0-170 61t-71 148q0 87 71 148t170 61q152 0 202-92 49 92 201 92z" horiz-adv-x="1097.2" />
<glyph glyph-name="approxequal" unicode="&#xe83c;" d="m181 5q-4-20-19-20h-4q-20 4-20 20v889q4 19 20 19h4q19-4 19-19v-889z" horiz-adv-x="732.4" />
<glyph glyph-name="lessequal" unicode="&#xe83d;" d="m131 716h2q21 0 66-54 3 0 106-106v-346q-154-158-162-158-4-2-10-2h-2q-33 6-33 33v2q0 22 68 82l70 73v289q-138 138-138 144v10q5 33 33 33z m469 0h2q33-5 33-33v-2q0-19-41-53-97-97-98-99v-289q137-137 137-143l2-12v-2q-6-33-33-33h-2q-19 0-59 47-51 49-113 113v346q149 158 162 158 3 2 10 2z" horiz-adv-x="732.4" />
<glyph glyph-name="greaterequal" unicode="&#xe83e;" d="m151 647h274q3-1 3-3v-273h-1l-92 90q-38-41-38-99 0-84 82-132 23-10 49-15v-127q0-3-4-3-64 0-143 51-119 93-119 230 0 106 76 192l-87 88v1z m313-1q64 0 143-51 119-93 119-229 0-107-76-192l87-89v-1h-274q-3 0-3 3v274h1l97-95h2q36 47 36 97 0 89-89 136-22 9-46 13l-1 2v130q0 2 4 2z" horiz-adv-x="887.2" />
<glyph glyph-name="zero" unicode="&#xe83f;" d="m347 915h4q20-4 20-20v-3q0-17-80-57-109-64-110-66v-764q-4-20-19-20h-4q-20 4-20 20v889q4 19 20 19h4q19-4 19-19v-71h2q157 92 164 92z" horiz-adv-x="887.2" />
<glyph glyph-name=".notdef-1" unicode="&#xe840;" d="m176 749h8q68 0 97-113 22-39 61-39 44 0 60 54 24 98 88 98h8q67 0 96-107 21-45 60-45 49 0 67 70 0 47 29 47h8q27-8 27-28 0-83-76-138-26-12-43-12h-23q-76 0-116 117 0 28-29 35h-2q-23 0-43-76-46-76-101-76h-20q-88 0-125 137-12 8-21 8-24-5-24-28v-359q-4-31-31-31h-2q-31 4-31 31v375q0 62 56 78 14 2 22 2z" horiz-adv-x="882.8" />
<glyph glyph-name="B-1" unicode="&#xe841;" d="m160 536q0-93 104-139 26-7 43-7h23q82 0 133 87 14 31 14 63 0 93-104 139-26 7-43 7h-23q-82 0-133-87-14-31-14-63z m379 0q0-93 104-139 26-7 43-7h23q82 0 133 87 14 31 14 63 0 93-104 139-26 7-43 7h-23q-82 0-133-87-14-31-14-63z m-226 211h11q109 0 184-100 75 100 183 100h12q111 0 184-102 31-50 31-101v-12q0-117-129-185-49-18-86-18h-12q-108 0-183 100-75-100-184-100h-11q-111 0-184 102-31 50-31 101v12q0 117 129 185 49 18 86 18z m-153-211q0-93 104-139 26-7 43-7h23q82 0 133 87 14 31 14 63 0 93-104 139-26 7-43 7h-23q-82 0-133-87-14-31-14-63z m379 0q0-93 104-139 26-7 43-7h23q82 0 133 87 14 31 14 63 0 93-104 139-26 7-43 7h-23q-82 0-133-87-14-31-14-63z m-226 211h11q109 0 184-100 75 100 183 100h12q111 0 184-102 31-50 31-101v-12q0-117-129-185-49-18-86-18h-12q-108 0-183 100-75-100-184-100h-11q-111 0-184 102-31 50-31 101v12q0 117 129 185 49 18 86 18z" horiz-adv-x="1015.6" />
<glyph glyph-name="C-1" unicode="&#xe842;" d="m324 857h12q112 0 189-106 12-18 12-25v-6q-6-27-27-27h-6q-16 0-45 47-56 58-131 58-101 0-156-101-16-36-16-73 0-96 94-152 38-21 115-21 44-6 108-49 86-78 86-176v-12q0-108-98-183-63-43-129-43h-6q-129 0-203 119v8q3 29 29 29h2q19 0 41-37 57-59 131-59 112 0 164 119 8 34 8 57 0 118-129 160-75 10-115 20-92 35-135 121-21 51-21 94v11q0 108 97 184 63 43 129 43z" horiz-adv-x="656.3" />
<glyph glyph-name="D-1" unicode="&#xe843;" d="m156 578v-17q0-88 100-129v271q-53-18-80-62-20-34-20-63z m164-215v-278h2q41 0 101 54 34 45 34 87 0 93-108 130-27 7-29 7z m-26 523q14-4 78-81 4 0 5-9l-3-2h-46v-34q75 0 146-77 19-24 19-36v-3q0-21-31-28-20 0-43 40-48 44-89 49h-2v-283q49 0 116-50 68-62 68-144v-7q0-109-114-172-42-20-70-20v-9q-5-30-32-30h-2q-32 4-32 30v11q-49 5-112 57-30 36-30 45v6q0 23 30 26 21 0 46-39 51-36 66-36v281q-46 2-108 57-56 59-56 132v8q0 101 100 165 23 15 64 25v36h-49q-4 0-4 4 59 71 82 88h3z" horiz-adv-x="609.4" />
<glyph glyph-name="E-1" unicode="&#xe844;" d="m221 545q0-57 133-78h13q123 13 123 80 0 51-90 72-10 4-33 4-101 0-142-63-4-9-4-15z m0-283q0-57 133-78h13q90 0 121 64 2 11 2 16 0 46-80 70-26 6-49 6-67 0-121-41-19-19-19-37z m131 558q62 0 62-15 4 0 4-10v-6q0-17-23-25-30 2-41 2-112 0-161-98-9-25-9-51h2q68 65 150 65h20q106 0 175-82 18-27 18-51v-10q0-81-121-123-30-8-63-8-127 0-193 88h-2q-18-54-18-94 0-36 18-92h2q66 88 191 88h4q126 0 176-99 6-18 6-33v-8q0-91-137-129-24-4-41-4h-8q-108 0-179 66v-4q0-105 131-142 62-3 62-22 2-3 2-9-3-28-27-28h-2q-142 0-209 125-12 28-16 73 0 33 14 64-41 73-41 148v14q0 79 41 147-14 37-14 66 0 114 123 176 47 21 104 21z" horiz-adv-x="646.5" />
<glyph glyph-name="F-1" unicode="&#xe845;" d="m514 867h11q121 0 198-116l2-11q-5-30-26-30h-9q-14 0-49 49-55 45-112 45h-15q-99 0-153-105-13-34-13-71 0-103 109-158 30-10 43-10h240v51q1 4 4 4 22-14 96-82v-10q-89-82-98-82l-2 4v47h-58q72-74 72-170 0-139-139-215-51-19-92-19h-11q-115 0-194 109-5 15-5 22 6 27 29 27h6q14 0 45-47 58-49 111-49h19q105 0 159 117 8 31 8 55v4q0 99-98 152-27 14-47 14h-314q-29 0-34 37 0 25 34 31h126q-74 77-74 172 0 129 125 207 54 28 106 28z m328-6q17 0 41-49 55-161 55-379v-25q0-245-69-391-22-25-29-25-20 0-25 33 0 25 17 55 39 115 39 341 0 267-53 385-3 19-3 29v2q0 20 27 24z m-647 0h4q19 0 24-28 0-15-28-89-31-125-31-323 0-238 45-351 14-23 14-45-8-31-26-31-38 0-74 156-25 119-25 260v23q0 238 62 397 20 31 35 31z" horiz-adv-x="1035.2" />
<glyph glyph-name="G-1" unicode="&#xe846;" d="m129 486h605q32-5 32-31v-2q-5-31-32-31h-605q-31 4-31 31v2q5 31 31 31z m0-254h605q32-5 32-31v-2q-5-31-32-31h-605q-31 4-31 31v2q5 31 31 31z" horiz-adv-x="863.3" />
<glyph glyph-name="H-1" unicode="&#xe847;" d="m129 490h211q31-5 31-32v-2q-4-31-31-31h-211q-31 5-31 31v2q5 32 31 32z m394 0h211q32-5 32-32v-2q-5-31-32-31h-211q-31 5-31 31v2q5 32 31 32z m-394-254h211q31-5 31-31v-2q-4-32-31-32h-211q-31 5-31 32v2q5 31 31 31z m394 0h211q32-5 32-31v-2q-5-32-32-32h-211q-31 5-31 32v2q5 31 31 31z" horiz-adv-x="863.3" />
<glyph glyph-name="I-1" unicode="&#xe848;" d="m131 526h211q31-5 31-31v-2q-4-32-31-32h-211q-31 5-31 32v2q5 31 31 31z m394 0h211q32-5 32-31v-2q-5-32-32-32h-211q-31 5-31 32v2q5 31 31 31z m-394-166h211q31-5 31-31v-2q-4-32-31-32h-211q-31 5-31 32v2q5 31 31 31z m394 0h211q32-5 32-31v-2q-5-32-32-32h-211q-31 5-31 32v2q5 31 31 31z m-396-164h605q32-5 32-31v-2q-5-32-32-32h-605q-31 5-31 32v2q5 31 31 31z" horiz-adv-x="865.2" />
<glyph glyph-name="J-1" unicode="&#xe849;" d="m391 688h7q30-7 30-29v-8q0-17-76-84l-159-160q8-12 256-258h2q12 22 43 61h2v-156q0-4-4-4h-156v2l64 49q-112 115-302 306 279 279 283 279z" horiz-adv-x="593.8" />
<glyph glyph-name="K-1" unicode="&#xe84a;" d="m497 512h4q63 0 88-71 2-10 2-19v-4q0-63-70-88-11-2-20-2h-4q-63 0-88 70-2 11-2 20v6q0 60 71 86 10 2 19 2z m-362-187h4q12 0 62-35 133-68 299-68 202 0 338 95 8 8 21 8h4q37-6 37-37v-6q0-42-171-103-110-34-227-34h-6q-230 0-390 116-8 10-8 21v6q6 37 37 37z" horiz-adv-x="998" />
<glyph glyph-name="L-1" unicode="&#xe84b;" d="m125 860q21 0 45-61 51-158 51-367v-25q0-245-69-391-22-25-29-25-22 0-25 37 0 19 21 60 35 121 35 332 0 269-52 383-4 20-4 35 0 18 27 22z m633 0q20 0 23-26 0-22-29-103-27-121-27-315 0-263 54-373 2-10 2-19-3-33-29-33-39 25-62 131-32 127-32 285v25q0 243 65 400 20 28 35 28z m-324-315h9q78 0 110-88 4-8 4-25v-10q0-77-88-109-9-4-26-4h-9q-78 0-110 88-4 9-4 25v10q0 77 88 109 9 4 26 4z" horiz-adv-x="878.9" />
<glyph glyph-name="M-1" unicode="&#xe84c;" d="m197 859q20 0 24-26 0-22-30-103-27-121-27-315 0-263 55-373 2-10 2-19-4-33-30-33-39 25-62 131-31 127-31 285v25q0 243 64 400 20 28 35 28z m489 0q21 0 45-61 50-158 50-367v-25q0-245-68-391-22-25-29-25-22 0-26 37 0 19 22 60 35 121 35 332 0 269-53 383-4 20-4 35 0 18 28 22z m-252-319h9q78 0 110-87 4-9 4-26v-10q0-77-88-109-9-4-26-4h-9q-78 0-110 88-4 9-4 25v10q0 77 88 110 9 3 26 3z" horiz-adv-x="878.9" />
<glyph glyph-name="N-1" unicode="&#xe84d;" d="m174 689h6q23-1 23-21 0-9-25-90-16-90-16-180v-64q0-165 41-248v-14q0-20-25-23h-2q-58 0-78 279v51q9 257 60 303 0 4 16 7z m670 0h6q56 0 76-281v-51q0-187-53-293-16-15-25-15h-2q-26 2-26 25 0 10 22 70 19 81 19 192v58q0 154-33 241-8 14-8 33v2q0 17 24 19z m-529-11h378q38 0 49-30v-13q0-22-68-82-192-190-192-192 3 0 200-199 25 30 56 59h2v-159q0-3-4-3h-171v1q30 27 72 53l-246 250 244 246h-299v-517q-5-33-29-33-30 5-30 29v560q0 30 38 30z" horiz-adv-x="1023.4" />
<glyph glyph-name="O-1" unicode="&#xe84e;" d="m98 796h2q266-156 273-156 249 145 272 156v-2q-235-651-270-744l-4-2h-4q-269 743-269 748z m129-154v-4l142-391h6l141 395h-2l-141-82h-4z" horiz-adv-x="742.2" />
<glyph glyph-name="P-1" unicode="&#xe84f;" d="m131 716h2q21 0 66-54 3 0 106-106v-346q-154-158-162-158-4-2-10-2h-2q-33 6-33 33v2q0 22 68 82l70 73v289q-138 138-138 144v10q5 33 33 33z m469 0h2q33-5 33-33v-2q0-19-41-53-97-97-98-99v-289q137-137 137-143l2-12v-2q-6-33-33-33h-2q-19 0-59 47-51 49-113 113v346q149 158 162 158 3 2 10 2z" horiz-adv-x="732.4" />
<glyph glyph-name="Q-1" unicode="&#xe850;" d="m131 791h391q66-10 66-66v-668q-10-66-66-66h-391q-33 5-33 33v2q5 33 33 33h353q36 5 36 35v594q-5 35-36 35h-353q-33 5-33 33v2q5 33 33 33z m152-203h2q93 0 129-99 4-16 4-33v-2q0-80-76-166-75-73-129-86l-41-8v4q87 46 121 123h-10q-93 0-129 99-4 16-4 34v2q0 92 100 128 16 4 33 4z" horiz-adv-x="685.5" />
<glyph glyph-name="R-1" unicode="&#xe851;" d="m131 792h391q66-10 66-66v-668q-10-66-66-66h-391q-33 5-33 33v2q5 33 33 33h353q36 5 36 35v594q-5 35-36 35h-353q-33 5-33 33v2q5 33 33 33z m152-265h2q92 0 129-96 6-14 6-39v-2q0-91-96-129-14-6-39-6h-2q-91 0-129 96-6 14-6 39v2q0 91 96 129 14 6 39 6z" horiz-adv-x="685.5" />
<glyph glyph-name="S-1" unicode="&#xe852;" d="m131 791h391q66-10 66-66v-668q-10-67-66-67h-391q-33 5-33 33v2q5 34 33 34h353q36 4 36 35v593q-5 36-36 36h-353q-33 5-33 33v2q5 33 33 33z m226-262q34-7 34-29v-12q0-9-41-64h62q33-6 33-33v-2q-5-34-33-34h-53v-2q41-43 41-62 0-24-35-33-22 0-72 68l-8 8q-51-84-70-84h-8q-31 9-31 29v8q0 13 41 68h-63q-33 6-33 34v2q6 33 33 33h55q-43 51-43 62v4q0 25 35 33 22 0 72-68l8-8h2q49 82 71 82h3z" horiz-adv-x="685.5" />
<glyph glyph-name="T-1" unicode="&#xe853;" d="m131 788h391q66-10 66-66v-668q-10-67-66-67h-391q-33 6-33 33v2q5 34 33 34h353q36 4 36 35v594q-5 35-36 35h-353q-33 5-33 33v2q5 33 33 33z m152-109h2q96 0 131-104 4-8 4-31v-2q0-93-100-131-18-4-29-4h-14q-76 0-119 84-10 22-10 51v2q0 94 102 131 16 4 33 4z m74-301q34-8 34-29v-12q0-9-41-65h60q35-5 35-33v-6q-7-29-29-29h-57v-2q41-45 41-60-5-36-35-36-23 0-62 57l-18 18q-52-82-70-82h-6q-26 0-33 29v10q0 9 41 66h-67q-29 8-29 29v6q0 28 35 33h53q-43 49-43 65v2q9 31 29 31h12q16 0 65-64 7-10 9-10h2q37 58 57 78 15 4 17 4z" horiz-adv-x="685.5" />
<glyph glyph-name="U-1" unicode="&#xe854;" d="m209 789h572q67-10 67-66v-668q-11-67-67-67h-572q-25 0-31 35 8 34 31 34h535q35 4 35 35v593q-5 36-35 36h-535q-25 0-31 35 8 33 31 33z m18-275h13q54 0 137-63l188-113q12-4 17-4h12q47 0 68 64v16q0 23-19 47l-2 12v5q0 23 33 30h2q37 0 55-78 1-1 1-20v-6q0-67-68-117-33-19-64-19h-12q-44 0-143 68-173 109-185 109-3 2-14 2h-8q-70-11-70-66v-8q0-21 18-49 2-3 2-10v-2q-6-33-34-33h-2q-38 0-54 90v16q0 79 88 121 24 8 41 8z" horiz-adv-x="945.3" />
<glyph glyph-name="V-1" unicode="&#xe855;" d="m131 791h391q66-10 66-66v-668q-10-67-66-67h-391q-33 5-33 33v2q5 34 33 34h353q36 4 36 35v593q-5 36-36 36h-353q-33 5-33 33v2q5 33 33 33z m187-111h10q51-12 51-51v-10q-11-51-51-51h-10q-50 12-50 51v10q11 51 50 51z m-117-147h244l4-2q-119-422-125-447h-4q-2 15-123 447z m61-49l60-230h2l61 230h-123z" horiz-adv-x="685.5" />
<glyph glyph-name="W-1" unicode="&#xe856;" d="m131 789h391q66-10 66-66v-668q-10-67-66-67h-391q-33 6-33 33v2q5 34 33 34h353q36 4 36 35v593q-5 36-36 36h-353q-33 5-33 33v2q5 33 33 33z m225-107q15 0 15-16v-6l-17-25v-2h27q16 0 16-16t-16-15h-24v-2l18-22v-6q0-15-16-15-9 0-37 33h-2q-19-37-33-37-15 0-15 15v6l17 26v2h-27q-16 0-16 15t16 16h25q-19 21-19 29v6q6 12 17 12 6 0 35-36h2q19 38 34 38z m-155-151h244l4-2q-119-422-125-447h-4q-2 15-123 447z m61-49l60-230h2l61 230h-123z" horiz-adv-x="685.5" />
<glyph glyph-name="X-1" unicode="&#xe857;" d="m131 792h391q66-10 66-66v-668q-10-67-66-67h-391q-33 5-33 33v2q5 34 33 34h353q36 4 36 35v593q-5 36-36 36h-353q-33 5-33 33v2q5 33 33 33z m189-102h2q123-131 123-132v-2h-248v2q122 132 123 132z m-2-56l-31-39h69l-32 39h-6z m-117-100h244l4-2q-119-422-125-447h-4q-2 15-123 447z m61-49l60-230h2l61 230h-123z" horiz-adv-x="685.5" />
<glyph glyph-name="Y-1" unicode="&#xe858;" d="m316 790h489q66-10 66-66v-668q-10-67-66-67h-489q-33 5-33 33v2q6 34 33 34h452q35 4 35 35v593q-5 36-35 36h-452q-33 5-33 33v2q6 33 33 33z m-187-221h603q32-5 32-31v-2q-5-31-32-31h-603q-31 4-31 31v2q5 31 31 31z m0-146h603q32-5 32-31v-2q-5-32-32-32h-603q-31 5-31 32v2q5 31 31 31z m0-147h603q32-5 32-31v-2q-5-31-32-31h-603q-31 4-31 31v2q5 31 31 31z" horiz-adv-x="968.8" />
<glyph glyph-name="Z-1" unicode="&#xe859;" d="m131 790h488q67-10 67-66v-668q-11-67-67-67h-488q-33 5-33 33v2q5 34 33 34h451q35 4 35 35v593q-5 36-35 36h-451q-33 5-33 33v2q5 33 33 33z m4-90h379q49-3 49-37v-6q0-21-69-82l-191-191q3-1 199-199 25 30 57 58h2v-158q0-4-4-4h-172v2q23 21 72 53-201 204-246 250l244 246h-297v-485q0-58-13-58-2-4-18-8-29 7-29 27v565q0 25 37 27z" horiz-adv-x="783.2" />
<glyph glyph-name="bracketleft-1" unicode="&#xe85a;" d="m363 871h12q119 0 197-116l2-11v-2q-7-28-25-28h-8q-18 0-41 39-57 55-121 55h-16q-105 0-158-117-8-31-8-55v-4q0-107 114-160 26-12 127-12h248v47q0 4 4 4 64-49 89-78v-4q0-7-80-74-7-6-11-6l-2 4v43h-155q73-74 73-170 0-138-139-215-52-19-92-19h-12q-93 0-168 76-31 34-31 53 5 29 26 29h5q19 0 43-41 58-55 121-55h16q99 0 152 106 14 28 14 70 0 108-115 160-18 6-24 6h-263q-39 0-39 31v2q0 27 33 31h80q-78 77-78 176 0 141 140 215 48 20 90 20z m487-2h2q33-6 33-34v-814q-6-33-33-33h-2q-34 5-34 33v814q6 34 34 34z" horiz-adv-x="982.4" />
<glyph glyph-name="backslash-1" unicode="&#xe85b;" d="m402 868h12q119 0 197-115l2-12v-2q-7-27-25-27h-8q-18 0-41 39-57 55-121 55h-16q-105 0-158-118-8-30-8-54v-4q0-107 114-160 26-12 127-12h279v47q0 4 4 4 65-50 90-78v-4q0-8-80-75-8-5-12-5l-2 4v43h-186q73-75 73-170 0-138-139-215-52-20-92-20h-12q-93 0-168 76-31 35-31 53 5 29 26 29h5q20 0 43-41 58-54 122-54h15q99 0 153 105 13 28 13 70 0 109-115 161-18 6-23 6h-303q-39 0-39 31v2q0 27 33 31h119q-78 76-78 176 0 140 141 215 47 19 89 19z" horiz-adv-x="947.3" />
<glyph glyph-name="bracketright-1" unicode="&#xe85c;" d="m494 872h12q119 0 197-115l2-12v-2q-7-27-25-27h-8q-19 0-41 39-57 55-121 55h-16q-105 0-158-118-8-30-8-54v-4q0-107 113-160 27-12 127-12h243v47q0 4 4 4 64-50 89-78v-4q0-8-80-75-7-5-11-5l-2 3v43h-149q72-74 72-170 0-137-138-214-52-20-92-20h-12q-94 0-168 76-31 34-31 53 5 29 25 29h6q19 0 43-41 57-54 121-54h16q99 0 152 105 14 28 14 70 0 109-115 161-18 5-24 5h-263q-39 0-39 32v2q0 26 33 31h80q-78 76-78 176 0 140 140 214 48 20 90 20z m-363-2h2q33-5 33-33v-815q-5-33-33-33h-2q-33 5-33 33v815q5 33 33 33z" horiz-adv-x="1002" />
<glyph glyph-name="asciicircum-1" unicode="&#xe85d;" d="m375 872h12q119 0 197-115l2-12v-2q-7-27-25-27h-8q-19 0-41 39-57 55-121 55h-16q-105 0-158-118-8-30-8-54v-4q0-107 113-160 21-6 26-6h318l-39 41v2q0 3 12 11 2 0 88-87v-2q-78-83-84-86h-2q-3 0-12 11v2l37 39h-125q74-75 74-172 0-137-138-214-53-20-92-20h-12q-94 0-168 76-31 34-31 53 5 29 25 29h6q19 0 43-41 57-54 121-54h16q99 0 152 105 14 28 14 70 0 109-115 161-23 7-39 7h-295q-4 0-4 4v12q0 4 4 4h191v2q-29 13-53 27h-138q-4 0-4 4v12q0 4 4 4h115q-72 73-72 170 0 140 140 214 48 20 90 20z m486-2h2q34-5 34-33v-815q-6-33-34-33h-2q-33 5-33 33v815q6 33 33 33z m-396-422v-2q29-13 53-27h168q2 0 15 16l-15 13h-221z" horiz-adv-x="994.1" />
<glyph glyph-name="underscore-1" unicode="&#xe85e;" d="m375 868h12q119 0 197-115l2-12v-2q-7-27-25-27h-8q-19 0-41 39-57 55-121 55h-16q-105 0-158-118-8-30-8-54v-4q0-107 113-160 21-6 26-6h318l-39 41v2q0 3 12 12 2 0 88-88v-2q-78-83-84-86h-2q-3 0-12 11v2l37 39h-125q74-75 74-171 0-138-138-215-53-20-92-20h-12q-94 0-168 76-31 35-31 53 5 29 25 29h6q19 0 43-41 57-54 121-54h16q99 0 152 105 14 28 14 70 0 109-115 161-23 7-39 7h-295q-4 0-4 4v12q0 4 4 4h191v2q-29 13-53 27h-138q-4 0-4 4v12q0 4 4 4h115q-72 74-72 170 0 140 140 215 48 19 90 19z m90-424v-2q29-13 53-27h168q2 0 15 16l-15 13h-221z" horiz-adv-x="824.2" />
<glyph glyph-name="grave-1" unicode="&#xe85f;" d="m523 872h12q108 0 186-98 13-17 13-29-4-29-25-29h-8q-18 0-41 39-57 55-121 55h-16q-104 0-158-118-8-30-8-54v-4q0-107 114-160 21-6 25-6h336q0 3-37 41 0 3 12 11h2q2 0 88-87 0-3-86-86h-2q-3 0-12 11 35 36 35 39h-51q-29 0-91 2 74-74 74-172 0-140-141-214-48-20-90-20h-11q-94 0-168 76-32 34-32 53 5 29 26 29h6q19 0 43-41 57-54 121-54h15q103 0 157 113 9 31 9 57v1q0 118-121 167-18 5-33 5h-295q-4 0-4 4v12q1 4 4 4h188v2q-30 13-53 27h-135q-4 0-4 4v12q1 4 4 4h115q-72 73-72 170 0 140 141 214 47 20 89 20z m-392-2h2q33-5 33-33v-815q-5-33-33-33h-2q-33 5-33 33v815q5 33 33 33z m478-422v-2q30-13 53-27h192q2 0 13 14-10 13-15 13-46 0-241 2h-2z" horiz-adv-x="994.1" />
<glyph glyph-name="a-1" unicode="&#xe860;" d="m473 745h2q33-5 33-33v-313h244v53q0 4 4 4 71-54 98-86v-4q0-9-84-78-11-10-16-10l-2 4v49h-244v-240h53q4-1 4-4-57-73-86-98h-4q-9 0-78 84-10 10-10 16l4 2h49v240h-309q-33 5-33 33v2q5 33 33 33h309v313q5 33 33 33z" horiz-adv-x="951.2" />
<glyph glyph-name="b-1" unicode="&#xe861;" d="m477 745h2q33-5 33-33v-311h277l-37 39v2q0 3 12 12h2q10-8 84-86v-2q0-2-88-88-3 0-12 12v2l39 41h-277v-242h49q4-1 4-4-57-73-86-98h-4q-9 0-78 84-10 10-10 16l4 2h52v242h-341q-4 0-4 4v12q0 3 4 3h341v30h-341q-4 0-4 4v11q0 4 4 4h341v311q6 33 34 33z m35-363v-30h297q2 0 15 16l-15 14h-297z" horiz-adv-x="947.3" />
<glyph glyph-name="c-1" unicode="&#xe862;" d="m471 745h10q84-91 84-100l-4-1h-49v-245h240v53q0 4 4 4 75-59 98-84v-4q-1-13-61-58-31-32-39-32l-2 4v49h-240v-309q-6-33-33-33h-2q-34 5-34 33v309h-312q-33 5-33 33v2q5 33 33 33h312v245h-52q-4 0-4 3 59 75 84 98z" horiz-adv-x="951.2" />
<glyph glyph-name="d-1" unicode="&#xe863;" d="m471 745h10q80-87 84-100l-4-1h-49v-243h277l-39 41v2q0 3 12 12h2l86-88v-2q-78-82-84-86h-2q-3 0-12 12v2l37 39h-277v-311q-6-33-33-33h-2q-34 5-34 33v311h-341q-4 0-4 4v12q0 3 4 3h341v30h-341q-4 0-4 4v11q0 4 4 4h341v243h-52q-4 0-4 3 59 75 84 98z m41-363v-30h297q2 0 15 16l-15 14h-297z" horiz-adv-x="947.3" />
<glyph glyph-name="e-1" unicode="&#xe864;" d="m154 529h6q11 0 16-10v-4q-22-63-22-72-9-49-9-117 0-116 31-176v-4q0-16-18-16h-4q-43 0-56 180v25q10 194 56 194z m90 0h490q32-5 32-31v-2q-4-32-32-32h-490q-31 4-31 32v2q4 31 31 31z m574 0h6q46 0 57-188v-23q0-106-37-174-12-12-20-12h-4q-17 0-17 16 0 6 17 47 14 58 14 135 0 118-31 179v10q5 10 15 10z m-574-166h490q32-5 32-32v-1q-4-32-32-32h-490q-31 4-31 32v1q4 32 31 32z m0-166h490q32-5 32-32v-1q-4-32-32-32h-490q-31 4-31 32v1q4 32 31 32z" horiz-adv-x="978.5" />
<glyph glyph-name="f-1" unicode="&#xe865;" d="m131 525h211q31-5 31-31v-2q-4-32-31-32h-211q-31 5-31 32v2q5 31 31 31z m394 0h211q32-5 32-31v-2q-5-32-32-32h-211q-31 5-31 32v2q5 31 31 31z m-396-166h607q32-5 32-31v-2q-5-32-32-32h-607q-31 5-31 32v2q5 31 31 31z m2-166h211q31-5 31-31v-2q-4-32-31-32h-211q-31 5-31 32v2q5 31 31 31z m394 0h211q32-5 32-31v-2q-5-32-32-32h-211q-31 5-31 32v2q5 31 31 31z" horiz-adv-x="865.2" />
<glyph glyph-name="g-1" unicode="&#xe866;" d="m131 527h211q31-5 31-31v-2q-4-31-31-31h-211q-31 4-31 31v2q5 31 31 31z m394 0h211q32-5 32-31v-2q-5-31-32-31h-211q-31 4-31 31v2q5 31 31 31z m319 0h2q31-5 31-31v-334q-4-31-31-31h-2q-31 4-31 31v334q4 31 31 31z m-715-166h607q32-5 32-31v-2q-5-31-32-31h-607q-31 4-31 31v2q5 31 31 31z m0-166h607q32-5 32-31v-2q-5-31-32-31h-607q-31 4-31 31v2q5 31 31 31z" horiz-adv-x="974.6" />
<glyph glyph-name="h-1" unicode="&#xe867;" d="m131 529h605q32-5 32-31v-2q-5-32-32-32h-605q-31 5-31 32v2q5 31 31 31z m713 0h2q31-5 31-31v-334q-4-32-31-32h-2q-31 5-31 32v334q4 31 31 31z m-715-166h607q32-5 32-32v-1q-5-32-32-32h-607q-31 5-31 32v1q5 32 31 32z m0-166h607q32-5 32-32v-1q-5-32-32-32h-607q-31 5-31 32v1q5 32 31 32z" horiz-adv-x="974.6" />
<glyph glyph-name="i-1" unicode="&#xe868;" d="m131 527h211q31-5 31-31v-2q-4-31-31-31h-211q-31 4-31 31v2q5 31 31 31z m394 0h211q32-5 32-31v-2q-5-31-32-31h-211q-31 4-31 31v2q5 31 31 31z m-396-166h607q32-5 32-31v-2q-5-31-32-31h-607q-31 4-31 31v2q5 31 31 31z m0-166h607q32-5 32-31v-2q-5-31-32-31h-607q-31 4-31 31v2q5 31 31 31z" horiz-adv-x="865.2" />
<glyph glyph-name="j-1" unicode="&#xe869;" d="m131 505h601q32-5 32-31v-2q-5-32-32-32h-601q-31 5-31 32v2q5 31 31 31z m-2-147h607q32-5 32-31v-2q-5-31-32-31h-607q-31 4-31 31v2q5 31 31 31z m0-146h607q32-5 32-31v-2q-5-32-32-32h-607q-31 5-31 32v2q5 31 31 31z" horiz-adv-x="865.2" />
<glyph glyph-name="k-1" unicode="&#xe86a;" d="m129 524h2q31-5 31-31v-334q-4-31-31-31h-2q-31 4-31 31v334q5 31 31 31z m109 0h211q32-5 32-31v-2q-5-31-32-31h-211q-31 4-31 31v2q5 31 31 31z m395 0h211q31-5 31-31v-2q-4-31-31-31h-211q-31 4-31 31v2q4 31 31 31z m-395-166h608q31-5 31-31v-2q-4-31-31-31h-608q-31 4-31 31v2q5 31 31 31z m0-166h608q31-5 31-31v-2q-4-31-31-31h-608q-31 4-31 31v2q5 31 31 31z" horiz-adv-x="974.6" />
<glyph glyph-name="l" unicode="&#xe86b;" d="m129 527h2q31-5 31-31v-334q-4-32-31-32h-2q-31 5-31 32v334q5 31 31 31z m109 0h606q31-5 31-31v-2q-4-32-31-32h-606q-31 5-31 32v2q5 31 31 31z m0-166h608q31-5 31-31v-2q-4-32-31-32h-608q-31 5-31 32v2q5 31 31 31z m0-166h608q31-5 31-31v-2q-4-32-31-32h-608q-31 5-31 32v2q5 31 31 31z" horiz-adv-x="974.6" />
<glyph glyph-name="m" unicode="&#xe86c;" d="m131 522h236q6-5 43-166h47q6 33 39 166h238q32-5 32-31v-2q-5-32-32-32h-199l-21-101h222q32-5 32-31v-2q-5-32-32-32h-240l-21-101h261q32-5 32-31v-2q-5-32-32-32h-607q-31 5-31 32v2q5 31 31 31h262v2l-22 99h-240q-31 5-31 32v2q5 31 31 31h223l-22 101h-199q-31 5-31 32v2q5 31 31 31z" horiz-adv-x="865.2" />
<glyph glyph-name="n" unicode="&#xe86d;" d="m131 522h603q32-5 32-31v-2q-5-32-32-32h-199l-21-101h222q32-5 32-31v-2q-5-32-32-32h-240l-21-101h261q32-5 32-31v-2q-5-32-32-32h-607q-31 5-31 32v2q5 31 31 31h262v2l-22 99h-240q-31 5-31 32v2q5 31 31 31h223l-22 101h-199q-31 5-31 32v2q5 31 31 31z m256-65v-1q21-100 25-100h45q0 6 24 101h-94z" horiz-adv-x="865.2" />
<glyph glyph-name="o" unicode="&#xe86e;" d="m231 521h1q93 0 129-99 4-16 4-33v-6q0-66-62-147-100-107-182-107l67 49q39 43 52 76h-8q-95 0-130 101-4 15-4 28v6q0 92 99 129 16 3 34 3z" horiz-adv-x="462.9" />
<glyph glyph-name="p" unicode="&#xe86f;" d="m231 522h1q93 0 129-99 4-16 4-33v-6q0-66-62-147-100-107-182-107l67 49q39 43 52 76h-8q-95 0-130 101-4 15-4 28v6q0 92 99 129 16 3 34 3z m351 0h2q93 0 129-99 4-16 4-33v-6q0-66-63-147-100-107-181-107l66 49q39 43 53 76h-8q-96 0-131 101-4 15-4 28v6q0 92 100 129 16 3 33 3z" horiz-adv-x="814.5" />
<glyph glyph-name="q" unicode="&#xe870;" d="m231 806h1q93 0 129-100 4-16 4-33v-6q0-65-62-147-100-107-182-107l67 49q39 43 52 76h-8q-95 0-130 102-4 14-4 27v6q0 93 99 129 16 4 34 4z m0-424h1q93 0 129-100 4-15 4-33v-6q0-65-62-146-100-108-182-108l67 49q39 43 52 76h-8q-95 0-130 102-4 14-4 27v6q0 93 99 129 16 4 34 4z" horiz-adv-x="462.9" />
<glyph glyph-name="r" unicode="&#xe871;" d="m361 666h4q68 0 94-72 4-8 4-21v-10q0-67-84-145-57-41-98-41 71 45 88 92h-8q-67 0-93 72-4 8-4 22v10q0 64 76 92 13 1 21 1z m-166-332h4q68 0 94-72 4-8 4-21v-10q0-67-84-145-57-41-98-41 71 45 88 92h-8q-68 0-93 72-4 8-4 22v10q0 64 76 91 13 2 21 2z m332 0h4q68 0 94-72 4-8 4-21v-10q0-67-84-145-57-41-98-41 71 45 88 92h-8q-67 0-93 72-4 8-4 22v10q0 64 76 91 13 2 21 2z" horiz-adv-x="726.6" />
<glyph glyph-name="s" unicode="&#xe872;" d="m195 870h4q68 0 94-72 4-8 4-22v-9q0-59-63-123-64-63-117-63 34 24 61 49 25 36 25 43h-8q-68 0-93 72-4 8-4 22v9q0 64 76 92 13 2 21 2z m2-295q69 0 98-76 2-13 2-22v-3q0-85-107-164-48-26-73-26v2q55 34 80 78l6 12q-76 0-103 76-2 13-2 22v3q0 58 58 88 21 10 41 10z m-6-297h12q61 0 90-70 4-14 4-23v-10q0-68-84-145-57-41-98-41 71 45 88 92h-8q-67 0-93 72-4 8-4 22v10q0 61 70 89 14 4 23 4z" horiz-adv-x="394.5" />
<glyph glyph-name="t" unicode="&#xe873;" d="m379 831h4q68 0 94-72 4-8 4-22v-10q0-58-63-123-64-62-117-62 34 24 60 49 26 36 26 43h-8q-68 0-94 72-4 8-4 21v10q0 64 76 92 14 2 22 2z m-182-275q69 0 98-77 2-13 2-21v-4q0-84-107-164-48-25-73-25v2q55 34 80 78l6 11q-76 0-103 77-2 13-2 21v4q0 58 58 88 21 10 41 10z m368 0q68 0 97-77 2-13 2-21v-4q0-84-107-164-48-25-73-25v2q56 34 81 78l5 11q-76 0-103 77-2 13-2 21v4q0 58 58 88 21 10 42 10z m-190-278h12q61 0 90-70 4-14 4-23v-10q0-68-84-145-57-41-98-41 71 45 88 92h-8q-67 0-94 72-4 8-4 22v10q0 61 71 89 13 4 23 4z" horiz-adv-x="761.7" />
<glyph glyph-name="u" unicode="&#xe874;" d="m332 543h8q145 0 221-144 13-35 23-88 44-92 137-92 97 0 140 112 12 7 22 7h2q29-3 29-29v-6q-17-63-86-113-55-29-105-29h-6q-118 0-184 119-11 26-19 78-53 127-174 127-113 0-168-117-12-35-12-67 0-24 12-60v-8q-8-27-27-27h-8q-34 0-39 87v16q0 116 109 195 61 39 125 39z m12-103h2q93 0 129-100 4-15 4-33v-6q0-65-63-146-100-108-182-108l67 49q39 43 53 76h-8q-96 0-131 102-4 15-4 27v6q0 93 100 129 15 4 33 4z" horiz-adv-x="1011.7" />
<glyph glyph-name="v" unicode="&#xe875;" d="m742 665h2q93 0 129-99 4-16 4-33v-6q0-66-62-147-101-107-182-107l66 49q39 43 53 76h-8q-96 0-131 101-4 15-4 28v6q0 92 100 129 16 3 33 3z m-410-119h8q145 0 221-144 13-35 23-88 44-92 137-92 97 0 140 111 12 8 22 8h2q29-3 29-29v-6q-17-63-86-113-55-29-105-29h-6q-118 0-184 119-11 26-19 78-53 127-174 127-113 0-168-117-12-35-12-67 0-24 12-60v-8q-8-28-27-28h-8q-34 0-39 88v16q0 116 109 195 61 39 125 39z m12-103h2q93 0 129-100 4-15 4-33v-6q0-65-63-146-100-108-182-108l67 49q39 43 53 76h-8q-96 0-131 102-4 14-4 27v6q0 93 100 129 15 4 33 4z" horiz-adv-x="1011.7" />
<glyph glyph-name="w" unicode="&#xe876;" d="m195 601h4q62 0 88-69 2-11 2-17v-14q0-57-70-82-8-2-16-2h-12q-58 0-84 70-1 8-1 16v12q0 58 70 84 10 2 19 2z m4-245h4q69 0 98-74 4-13 4-23v-8q0-89-114-172-43-25-72-25h-2l51 39q36 39 39 56h-2q-73 0-103 73-4 18-4 29v8q0 66 80 95 13 2 21 2z" horiz-adv-x="402.3" />
<glyph glyph-name="x" unicode="&#xe877;" d="m195 872h12q64 0 94-75 4-13 4-23v-8q0-90-115-174-51-25-75-25v4q59 30 88 84 4 6 4 10h-6q-73 0-101 80-2 13-2 21v8q0 64 74 94 14 4 23 4z m0-334q72 0 94-81v-19q0-58-70-84-11-2-18-2h-8q-60 0-86 70-1 11-1 20v8q0 60 70 84 5 2 19 4z m2-247h8q72 0 98-82 2-7 2-17v-6q0-61-61-129-73-68-125-68h-2q88 63 88 95-78 0-105 81-2 13-2 21v6q0 72 82 98 7 1 17 1z" horiz-adv-x="402.3" />
<glyph glyph-name="y" unicode="&#xe878;" d="m232 467h2q92 0 129-95 6-15 6-40v-1q0-92-96-129-14-6-39-6h-2q-91 0-128 95-6 15-6 40v1q0 92 95 129 15 6 39 6z" horiz-adv-x="466.8" />
<glyph glyph-name="z" unicode="&#xe879;" d="m232 462h2q92 0 129-95 6-15 6-39v-2q0-92-96-129-14-6-39-6h-2q-91 0-128 96-6 14-6 39v2q0 91 95 128 15 6 39 6z m329 0h2q91 0 128-95 6-15 6-39v-2q0-92-95-129-15-6-39-6h-2q-92 0-129 96-6 14-6 39v2q0 91 96 128 14 6 39 6z" horiz-adv-x="794.9" />
<glyph glyph-name="braceleft" unicode="&#xe87a;" d="m191 533q63 0 86-76v-18q0-61-72-84-7-2-17-2-70 0-90 79v15q0 63 76 86h17z m-3-236q69 0 89-78v-16q0-63-76-86h-17q-63 0-86 76v18q0 61 72 84 7 2 18 2z" horiz-adv-x="375" />
<glyph glyph-name="bar" unicode="&#xe87b;" d="m311 532q63 0 86-76v-18q0-62-73-84-7-2-17-2-70 0-90 78v16q0 63 76 86h18z m-120-237q62 0 84-72 2-7 2-17 0-70-78-90h-15q-61 0-84 70-2 8-2 16v7q0 63 76 86h17z m237 0q63 0 86-76v-17q0-63-76-86h-18q-62 0-84 72-2 7-2 18 0 69 78 89h16z" horiz-adv-x="611.3" />
<glyph glyph-name="braceright" unicode="&#xe87c;" d="m207 819h6q76 0 105-84 4-8 4-25v-8q0-73-84-105l-27-4q-76 0-109 82-4 14-4 27v8q0 76 84 105 8 4 25 4z m2-271q78 0 109-84 4-9 4-26v-7q0-76-84-106-8-4-25-4h-6q-76 0-105 84-4 9-4 26v7q0 73 84 106z m0-274q78 0 109-84 4-8 4-25v-8q0-76-84-105-8-4-25-4h-6q-76 0-105 84-4 9-4 25v8q0 73 84 105z" horiz-adv-x="419.9" />
<glyph glyph-name="asciitilde" unicode="&#xe87d;" d="m334 643h6q61 0 86-72 2-11 2-20 0-64-69-90-10-2-17-2h-12q-58 0-84 71-2 10-2 19v6q0 60 71 86 10 2 19 2z m-143-203q61 0 88-70 2-8 2-16v-14q0-58-70-84-11-2-18-2h-3q-67 0-90 73-2 7-2 15v6q0 64 72 90 11 0 21 2z m290 0q64 0 91-70 2-14 2-22v-6q0-61-72-86-10-2-20-2h-3q-61 0-86 71-2 7-2 15v14q0 58 70 82 5 2 20 4z m-151-207h12q59 0 84-72 2-11 2-20 0-67-72-90-8-2-16-2h-6q-63 0-88 71-2 10-2 17v6q0 62 69 88 10 2 17 2z" horiz-adv-x="671.9" />
<glyph glyph-name="exclamdown" unicode="&#xe87e;" d="m332 522h8q145 0 221-145 13-34 23-87 44-92 137-92 97 0 140 111 12 8 22 8h2q29-4 29-29v-6q-17-63-86-114-55-29-105-29h-6q-118 0-184 119-11 26-19 78-53 127-174 127-113 0-168-117-12-35-12-66 0-24 12-61v-8q-8-27-27-27h-8q-34 0-39 88v16q0 116 109 195 61 39 125 39z m2-104q72 0 94-80v-19q0-58-71-84-10-2-17-2h-8q-60 0-86 70-2 10-2 20v8q0 60 71 84 4 1 19 3z" horiz-adv-x="1011.7" />
<glyph glyph-name="cent" unicode="&#xe87f;" d="m332 521h8q145 0 221-145 13-34 23-87 44-92 137-92 97 0 140 111 12 8 22 8h2q29-4 29-29v-6q-17-63-86-114-55-29-105-29h-6q-118 0-184 119-11 26-19 78-53 127-174 127-113 0-168-117-12-35-12-66 0-24 12-61v-8q-8-27-27-27h-8q-34 0-39 88v16q0 116 109 195 61 39 125 39z m2-104q72 0 94-80v-19q0-58-71-84-10-2-17-2h-8q-60 0-86 70-2 10-2 20v8q0 60 71 84 4 1 19 3z m385 0q72 0 94-80v-19q0-58-71-84-11-2-17-2h-8q-60 0-86 70-2 10-2 20v8q0 60 70 84 5 1 20 3z" horiz-adv-x="1011.7" />
<glyph glyph-name="sterling" unicode="&#xe880;" d="m231 582h5q66 0 100-70 8-16 8-43 0-76-84-106-18-4-26-4-83 0-109 94l-2 20q0 75 82 105 9 4 26 4z m64-270q26 0 29-33 0-8-35-56h55q25-7 25-26v-4q0-26-31-29h-41q35-40 35-51-6-31-29-31-20 0-63 61l-4 1q-47-66-52-66l-12-2h-4q-19 0-25 27 0 16 35 61h-49q-31 3-31 29v4q6 26 25 26h49q-37 42-37 54 0 25 31 30 17 0 57-55 8-10 9-10 42 70 63 70z" horiz-adv-x="466.8" />
<glyph glyph-name="currency" unicode="&#xe881;" d="m295 850h4q21 0 25-29v-2q0-9-33-55v-2h47q31-3 31-29v-4q-6-25-25-25h-47q35-42 35-53 0-26-33-29-16 0-61 62h-2q-45-68-58-68h-10q-22 0-25 31 0 8 35 57h-55q-25 6-25 25v4q0 26 31 29h41v2q-35 39-35 51 6 29 25 29h6q19 0 51-47 14-15 15-15 44 66 53 66 4 2 10 2z m-57-293q70 0 104-80 4-19 4-29v-4q0-79-88-108l-24-2q-78 0-107 90-2 21-2 24 0 79 92 107 13 2 21 2z m53-271h8q22 0 25-32 0-9-35-56h51q29-4 29-26v-4q0-26-31-29h-41q35-40 35-51-6-31-29-31-20 0-63 61l-4 2q-47-67-52-67l-12-2q-26 0-29 31 0 10 35 57h-49q-31 3-31 29v4q0 22 29 26h45q-37 42-37 54 0 24 31 30 18 0 61-61l5-4q42 69 59 69z" horiz-adv-x="466.8" />
<glyph glyph-name="yen" unicode="&#xe882;" d="m193 497h6q19 0 67-66l45-51q72 94 99 115 11 2 16 2 25 0 31-33v-6q0-13-70-92l-2-4h101q34-6 34-33v-2q0-26-30-33h-107q74-87 74-98v-4q-7-33-29-33h-12q-17 1-68 70l-39 43q-77-94-100-113l-12-2h-2q-33 6-33 33v2q0 18 53 75l21 27h-109q-29 7-29 33v2q5 33 33 33h103q-74 86-74 96v8q0 24 33 31z" horiz-adv-x="617.2" />
<glyph glyph-name="brokenbar" unicode="&#xe883;" d="m193 498h6q19 0 67-67l45-51q72 94 99 116 11 2 16 2 25 0 31-34v-6q0-13-70-91l-2-4h101q34-6 34-33v-2q0-27-30-34h-107q74-86 74-97v-4q-7-33-29-33h-12q-17 1-68 70l-39 43q-77-95-100-113l-12-2h-2q-33 5-33 33v2q0 17 53 74l21 27h-109q-29 7-29 34v2q5 33 33 33h103q-74 86-74 95v8q0 25 33 32z m454 0h5q19 0 67-67l45-51q72 94 99 116 11 2 16 2 25 0 31-34v-6q0-13-70-91l-2-4h102q33-6 33-33v-2q0-27-30-34h-107q74-86 74-97v-4q-7-33-29-33h-12q-17 1-68 70l-39 43q-76-95-100-113l-12-2h-2q-33 5-33 33v2q0 17 53 74l22 27h-110q-29 7-29 34v2q5 33 33 33h104q-75 86-75 95v8q0 25 34 32z" horiz-adv-x="1070.3" />
<glyph glyph-name="section" unicode="&#xe884;" d="m193 778h2q22 0 45-35l71-82q72 93 99 115 11 2 16 2 24 0 31-33v-6q0-13-70-92l-2-3h99q36-6 36-34v-6q-8-29-30-29h-107q67-79 72-92l2-9q-6-36-35-36-22 0-70 67-41 48-43 49-85-104-96-112-6-4-12-4h-10q-29 7-29 34v2q0 16 43 62l31 39h-109q-29 8-29 29v6q0 28 35 34h101q-74 85-74 95v8q0 24 33 31z m-3-390h7q21 0 63-59 47-52 47-57h2q5 3 93 110 13 6 20 6h2q33-6 33-34v-5q0-11-72-96h101q34-5 34-33v-2q-6-33-34-33h-103q74-87 74-98v-4q-7-33-29-33h-12q-17 1-68 70l-39 43q-76-94-100-113l-12-2h-2q-33 5-33 33v2q0 18 53 74l21 28h-105q-33 5-33 33v2q5 33 33 33h103q-74 86-74 96v7q9 32 30 32z" horiz-adv-x="617.2" />
<glyph glyph-name="dieresis" unicode="&#xe885;" d="m533 659q24 0 30-32v-5q0-14-41-69h66q22 0 29-33v-2q-7-33-29-33h-57v-2q41-45 41-61-5-35-35-35-23 0-62 57l-18 17q-52-82-70-82h-6q-26 0-33 30v9q0 10 41 67h-67q-22 0-29 33v2q7 33 29 33h59q-43 51-43 65 5 35 35 35 24 0 59-53 1 0 21-23 53 82 70 82h10z m-195-334q23 0 29-32v-5q0-14-41-69h67q22 0 29-33v-2q-7-33-29-33h-57v-2q41-45 41-61-5-35-35-35-23 0-63 57-15 17-17 17-52-82-71-82h-5q-27 0-34 30v9q0 10 41 67h-66q-22 0-29 33v2q7 33 29 33h59q-43 51-43 65 5 35 35 35 23 0 58-53 2 0 22-23 53 82 70 82h10z m391 0q23 0 29-32v-5q0-14-41-69h66q23 0 30-33v-2q-7-33-30-33h-56v-2q41-45 41-61-6-35-36-35-22 0-62 57-16 17-18 17-51-82-70-82h-6q-26 0-33 30v9q0 10 41 67h-66q-23 0-30 33v2q7 33 30 33h58q-43 51-43 65 6 35 35 35 24 0 59-53 1 0 21-23 53 82 71 82h10z" horiz-adv-x="910.2" />
<glyph glyph-name="copyright" unicode="&#xe886;" d="m338 870q23 0 29-31v-6q0-13-41-68h67q22 0 29-34v-2q-7-33-29-33h-57v-2q41-45 41-60-5-35-35-35-23 0-63 56l-17 18q-52-82-71-82h-5q-27 0-34 29v10q0 9 41 66h-66q-22 0-29 33v2q7 34 29 34h59q-43 50-43 64 5 35 35 35 23 0 58-53 2 0 22-23 53 82 70 82h10z m0-301q23 0 29-31v-6q0-13-41-68h67q22 0 29-33v-2q-7-34-29-34h-57v-1q41-45 41-61-5-35-35-35-23 0-63 56-15 18-17 18-52-82-71-82h-5q-27 0-34 29v10q0 9 41 66h-66q-22 0-29 34v2q7 33 29 33h59q-43 51-43 64 5 35 35 35 23 0 58-52 2 0 22-24 53 82 70 82h10z m0-300q23 0 29-32v-6q0-13-41-68h67q22 0 29-33v-2q-7-33-29-33h-57v-2q41-45 41-61-5-35-35-35-23 0-63 57l-17 17q-52-82-71-82h-5q-27 0-34 30v9q0 10 41 67h-66q-22 0-29 33v2q7 33 29 33h59q-43 51-43 64 5 36 35 36 23 0 58-53 2 0 22-24 53 83 70 83h10z" horiz-adv-x="519.5" />
<glyph glyph-name="ordfeminine" unicode="&#xe887;" d="m463 810h4q21 0 25-30v-2q0-9-35-56h51q29-4 29-30-3-29-29-29h-43q35-41 35-51-6-31-29-31-18 0-51 45l-16 18q-46-65-52-67l-12-2h-4q-21 0-25 31 0 10 35 57h-51q-29 4-29 25v4q3 30 29 30h45q-37 42-37 52 5 30 25 30h6q19 0 51-47l15-16q42 67 55 67 0 2 8 2z m-168-262h4q21 0 25-29v-2q0-10-35-57h51q29-4 29-29-3-30-29-30h-43q35-41 35-50-6-32-29-32-18 0-51 45l-16 18q-46-65-52-67l-12-2h-4q-21 0-25 32 0 9 35 56h-51q-29 5-29 26v4q3 29 29 29h45q-37 42-37 53 5 29 25 29h6q19 0 51-47l15-16q42 67 55 67 0 2 8 2z m332 0h4q21 0 25-29v-2q0-10-35-57h51q29-4 29-29-3-30-29-30h-43q35-41 35-50-6-32-29-32-18 0-51 45l-16 18q-45-65-52-67l-12-2h-4q-21 0-25 32 0 9 35 56h-51q-29 5-29 26v4q3 29 29 29h45q-37 42-37 53 5 29 25 29h6q19 0 51-47l16-16q41 67 54 67 0 2 8 2z m-164-266h4q21 0 25-29v-2q0-10-35-57h51q29-3 29-29-3-29-29-29h-43q35-41 35-51-6-31-29-31-18 0-51 45l-16 17q-46-65-52-66l-12-2h-4q-21 0-25 31 0 9 35 57h-51q-29 4-29 25v4q3 29 29 29h45q-37 42-37 53 5 29 25 29h6q19 0 51-47l15-15q42 66 55 66 0 2 8 2z" horiz-adv-x="798.8" />
<glyph glyph-name="guillemotleft" unicode="&#xe888;" d="m231 467h1l-19-101h2q516-4 652-6l-21 107h2l133-136-133-137h-2q19 97 19 103h-652v-2l19-101h-1l-133 137z" horiz-adv-x="1078.1" />
<glyph glyph-name="logicalnot" unicode="&#xe889;" d="m443 724h2q94-193 151-297h156q33-5 33-33v-2q-5-33-33-33h-123q106-213 156-305v-4h-685q0 8 156 309h-125q-33 5-33 33v2q5 33 33 33h160q149 296 152 297z m-2-146l-74-151h151v2q-73 147-77 149z m-109-219q0-4-121-244h463q-120 241-123 244h-219z" horiz-adv-x="882.8" />
<glyph glyph-name="registered" unicode="&#xe88a;" d="m600 440h4q21 0 25-29v-2q0-10-35-57h51q12 0 25-11h186q20 0 62-2l-10 53h2l67-69-67-68h-2l10 49h-250q-12-10-23-10h-43q35-41 35-51-7-31-30-31-18 0-50 45l-16 17q-46-65-53-66l-11-2h-4q-22 0-26 31 0 10 35 57h-50q-12 0-24 10h-254l10-47h-2q-2 0-64 66v2q62 67 64 67h2l-10-49h254q12 9 24 9h45q-37 42-37 53 5 30 25 30h6q19 0 51-47l15-16q42 66 55 66 0 2 8 2z" horiz-adv-x="1074.2" />
<glyph glyph-name="macron" unicode="&#xe88b;" d="m443 723q93-192 340-670v-4h-685q31 66 342 674h3z m-3-147l-231-463h463q-229 463-232 463z m-2-205q71 0 93-80v-20q0-58-70-84-11-2-18-2h-7q-60 0-86 71-2 10-2 19v8q0 60 70 84 5 2 20 4z" horiz-adv-x="880.9" />
<glyph glyph-name="degree" unicode="&#xe88c;" d="m277 836q55 0 77-64v-18q0-54-65-76h-17q-56 0-77 67v15q0 54 65 76h17z m-179-209h353v-2q-8-37-176-638h-2q-167 601-175 640z m88-68q80-292 87-328h2q0 7 88 328h-177z" horiz-adv-x="548.8" />
<glyph glyph-name="plusminus" unicode="&#xe88d;" d="m277 839q55 0 77-65v-17q0-54-65-76h-17q-56 0-77 66v16q0 54 65 76h17z m-179-209h353v-2q-8-37-176-639h-2q-167 601-175 641z m88-69q11-39 25-93h127q19 75 25 93h-177z m45-162l42-166h2l43 166h-87z" horiz-adv-x="548.8" />
<glyph glyph-name="uni00B2" unicode="&#xe88e;" d="m260 885q54 0 76-57 4-16 4-23 0-53-61-77-10-1-17-1h-4q-52 0-74 56-4 16-4 24 0 52 60 76 11 2 20 2z m0-179q54 0 76-57 4-15 4-23 0-52-61-76-10-2-17-2h-4q-52 0-74 56-4 16-4 24 0 53 60 76 11 2 20 2z m-158-180h316l4-2q-160-526-160-535h-4q-6 31-160 535z m86-66l70-243 4-10 70 253h-144z" horiz-adv-x="519.5" />
<glyph glyph-name="uni00B3" unicode="&#xe88f;" d="m259 883q54 0 76-57 4-16 4-23 0-53-61-76-10-2-17-2h-4q-52 0-74 56-4 16-4 24 0 52 60 76 11 2 20 2z m39-195q16 0 17-19 0-3-21-33h31q15 0 18-20-5-15-18-15h-27q21-22 21-34 0-12-17-15-10 0-41 37-26-41-37-41h-2q-13 0-18 15 0 8 22 38h-32q-14 0-17 19 5 16 17 16h28q-22 24-22 33 0 8 12 16h8q12 0 37-38l33 41h8z m-196-162h316l4-2q-160-526-160-535h-4q-6 31-160 535z m86-66l70-243 4-10 70 253h-144z" horiz-adv-x="519.5" />
<glyph glyph-name="acute" unicode="&#xe890;" d="m188 460l70-243 4-10 70 253h-144z m-86 66h316l4-2q-160-526-160-535h-4q-6 31-160 535z m157 357q54 0 76-57 4-16 4-23 0-53-61-76-10-2-17-2h-4q-52 0-74 56-4 16-4 24 0 52 60 76 11 2 20 2z m39-195q16 0 17-19 0-3-21-33h31q15 0 18-20-5-15-18-15h-27q21-22 21-34 0-12-17-15-10 0-41 37-26-41-37-41h-2q-13 0-18 15 0 8 22 38h-32q-14 0-17 19 5 16 17 16h28q-22 24-22 33 0 8 12 16h8q12 0 37-38l33 41h8z m-123-310h184l-30-59h-171l5 41z" horiz-adv-x="519.5" />
<glyph glyph-name="mu" unicode="&#xe891;" d="m334 876h4q21 0 25-29v-2q0-10-35-57h51q29-3 29-29-3-30-29-30h-43q35-41 35-50-6-32-29-32-18 0-51 45l-16 18q-45-65-52-66l-12-2h-4q-21 0-25 31 0 9 35 56h-51q-29 5-29 26v4q3 29 29 29h45q-37 42-37 53 5 29 25 29h6q19 0 51-47l16-15q42 66 54 66 0 2 8 2z m-236-246h353v-2q-8-37-176-639h-2q-167 601-175 641z m88-69q4-9 87-326h2q77 287 88 326h-177z" horiz-adv-x="548.8" />
<glyph glyph-name="paragraph" unicode="&#xe892;" d="m334 876h4q21 0 25-29v-2q0-10-35-57h51q29-3 29-29-3-30-29-30h-43q35-41 35-50-6-32-29-32-18 0-51 45l-16 18q-45-65-52-66l-12-2h-4q-21 0-25 31 0 9 35 56h-51q-29 5-29 26v4q3 29 29 29h45q-37 42-37 53 5 29 25 29h6q19 0 51-47l16-15q42 66 54 66 0 2 8 2z m-236-246h353v-2q-8-37-176-639h-2q-167 601-175 641z m88-69q4-9 25-93h127q14 54 25 93h-177z m45-162l42-164h2l43 164h-87z" horiz-adv-x="548.8" />
<glyph glyph-name="periodcentered" unicode="&#xe893;" d="m272 854h3q3 0 178-191v-2h-355v2q150 162 174 191z m1-68l-79-83h156z m-173-156h353v-2q-8-37-176-639h-2q-168 601-175 641z m88-69q3-9 87-326h2q77 287 88 326h-177z" horiz-adv-x="550.8" />
<glyph glyph-name="periodcentered-1" unicode="&#xe894;" d="m272 854h3q3 0 178-191v-2h-355v2q150 162 174 191z m1-68l-79-83h156z m-173-156h353v-2q-8-37-176-639h-2q-168 601-175 641z m88-69q3-9 87-326h2q77 287 88 326h-177z" horiz-adv-x="550.8" />
<glyph glyph-name="cedilla" unicode="&#xe895;" d="m98 630h353v-2q-8-37-176-639h-2q-167 601-175 641z m88-69q4-9 25-93h127q14 54 25 93h-177z m45-162l42-164h2l43 164h-87z m41 455h3q3 0 178-191v-2h-355v2q150 162 174 191z m1-68l-79-83h156z" horiz-adv-x="550.8" />
<glyph glyph-name="uni00B9" unicode="&#xe896;" d="m272 854h3q3 0 178-191v-2h-355v2q150 162 174 191z m-172-224h353v-2q-8-37-176-639h-2q-168 601-175 641z m88-69q3-9 87-326h2q77 287 88 326h-177z" horiz-adv-x="550.8" />
<glyph glyph-name="ordmasculine" unicode="&#xe897;" d="m272 854h3q3 0 178-191v-2h-355v2q150 162 174 191z m-172-224h353v-2q-8-37-176-639h-2q-168 601-175 641z m88-69q3-9 25-93h127q14 54 25 93h-177z m44-162l43-164h2l43 164h-88z" horiz-adv-x="550.8" />
<glyph glyph-name="guillemotright" unicode="&#xe898;" d="m131 849h492q67-11 67-67v-668q-11-66-67-66h-492q-33 5-33 33v2q5 33 33 33h455q35 0 35 41v582q0 41-35 41h-455q-33 6-33 33v2q5 34 33 34z m4-92h400q37-7 37-37v-4q0-22-68-82 0-2-191-192 99-101 199-199 55 59 56 59h2v-158q0-4-4-4h-171v4q4 0 70 50-100 104-244 248v2q1 0 244 244h-299v-496q0-52-27-52h-4q-29 0-29 37v543q0 37 29 37z m666-246h2q60-9 60-61v-2q-8-60-60-60h-2q-61 8-61 60v2q9 61 61 61z" horiz-adv-x="960.9" />
<glyph glyph-name="onequarter" unicode="&#xe899;" d="m131 849h492q67-11 67-67v-668q-11-66-67-66h-492q-33 5-33 33v2q5 33 33 33h455q35 0 35 41v582q0 41-35 41h-455q-33 6-33 33v2q5 34 33 34z m4-92h400q37-7 37-37v-4q0-22-68-82 0-2-191-192 99-101 199-199 55 59 56 59h2v-158q0-4-4-4h-171v4q4 0 70 50-100 104-244 248v2q1 0 244 244h-299v-496q0-52-27-52h-4q-29 0-29 37v543q0 37 29 37z m666-160h2q60-9 60-61v-2q-8-60-60-60h-2q-61 8-61 60v2q9 61 61 61z m0-176h2q60-9 60-61v-2q-8-60-60-60h-2q-61 9-61 60v2q9 61 61 61z" horiz-adv-x="960.9" />
<glyph glyph-name="onehalf" unicode="&#xe89a;" d="m131 849h492q67-11 67-67v-668q-11-66-67-66h-492q-33 5-33 33v2q5 33 33 33h455q35 0 35 41v582q0 41-35 41h-455q-33 6-33 33v2q5 34 33 34z m4-92h400q37-7 37-37v-4q0-22-68-82 0-2-191-192 99-101 199-199 55 59 56 59h2v-158q0-4-4-4h-171v4q4 0 70 50-100 104-244 248v2q1 0 244 244h-299v-496q0-52-27-52h-4q-29 0-29 37v543q0 37 29 37z m713-115h6q2 0 11-12v-6q0-8-19-33v-2h29q18-3 18-18-3-17-18-17h-25l19-26v-11q-7-12-17-12-10 0-41 37-24-41-38-41-17 2-17 18 0 7 19 33v2h-29q-17 2-17 17 2 18 17 18h26v2q-20 21-20 29v2q0 16 16 16h7q3-1 36-37 23 41 37 41z m21-143q9-4 10-8v-6q-31-33-123-123h-6q-8 4-8 12 0 5 123 125h4z m-58-127q2 0 78-115v-4h-157v4q77 115 79 115z m-43-98v-2h86v2q-41 61-43 61t-43-61z" horiz-adv-x="990.2" />
<glyph glyph-name="threequarters" unicode="&#xe89b;" d="m131 849h492q67-11 67-67v-668q-11-66-67-66h-492q-33 5-33 33v2q5 33 33 33h455q35 0 35 41v582q0 41-35 41h-455q-33 6-33 33v2q5 34 33 34z m717-51h6q2 0 11-12v-6q0-8-19-33v-2h29q18-2 18-18-3-17-18-17h-25q14-18 19-25v-12q-7-12-17-12-10 0-41 37-24-41-38-41-17 3-17 18 0 8 19 33v2h-29q-17 2-17 17 2 18 17 18h26v2q-20 21-20 29v2q0 16 16 16h7q3-1 36-37 23 41 37 41z m-713-41h400q37-7 37-37v-4q0-22-68-82 0-2-191-192 99-101 199-199 55 59 56 59h2v-158q0-4-4-4h-171v4q4 0 70 50-100 104-244 248v2q1 0 244 244h-299v-496q0-52-27-52h-4q-29 0-29 37v543q0 37 29 37z m713-115h6q2 0 11-12v-6q0-8-19-33v-2h29q18-3 18-18-3-17-18-17h-25l19-26v-11q-7-12-17-12-10 0-41 37-24-41-38-41-17 2-17 18 0 7 19 33v2h-29q-17 2-17 17 2 18 17 18h26v2q-20 21-20 29v2q0 16 16 16h7q3-1 36-37 23 41 37 41z m21-143q9-4 10-8v-6q-31-33-123-123h-6q-8 4-8 12 0 5 123 125h4z m-58-127q2 0 78-115v-4h-157v4q77 115 79 115z m-43-98v-2h86v2q-41 61-43 61t-43-61z m43-48q2 0 78-116v-4h-157v4q77 116 79 116z m-43-98v-2h86v2q-41 60-43 60t-43-60z" horiz-adv-x="990.2" />
<glyph glyph-name="questiondown" unicode="&#xe89c;" d="m502 823h6q3 0 12-12v-5q0-8-20-34v-2h29q18-2 18-17-3-18-18-18h-25q14-18 19-25v-12q-6-12-17-12-9 0-41 38-24-41-37-41-18 2-18 17 0 8 20 33v2h-30q-17 3-17 18 2 17 17 17h26v2q-20 21-20 30v2q0 15 16 15h8q2 0 35-37 23 41 37 41z m-312-2h3q69-11 69-68v-4q-11-68-69-68h-3q-69 11-69 68v4q11 68 69 68z m164-4q10 0 13-9-64-117-70-120h-6q-8 4-8 12 51 92 69 117h2z m-231-152h402q38-6 38-37v-4q0-21-45-59l-213-214q30-36 197-200l57 59h2v-158q0-4-4-4h-170v2q0 2 68 52 0 4-244 249v1q2 0 244 245h-297v-487q0-62-29-62h-6q-25 6-25 25v567q6 25 25 25z" horiz-adv-x="660.2" />
<glyph glyph-name="Agrave" unicode="&#xe89d;" d="m330 811q2 0 78-115v-4h-156v4q76 115 78 115z m-43-97v-2h86v2q-41 60-43 60t-43-60z m-164-49h402q38-6 38-37v-4q0-21-45-59l-213-214q30-36 197-200l57 59h2v-158q0-4-4-4h-170v2q0 2 68 52 0 4-244 249v1q2 0 244 245h-297v-487q0-62-29-62h-6q-25 6-25 25v567q6 25 25 25z" horiz-adv-x="660.2" />
<glyph glyph-name="Aacute" unicode="&#xe89e;" d="m502 823h6q3 0 12-12v-5q0-8-20-34v-2h29q18-2 18-17-3-18-18-18h-25q14-18 19-25v-12q-6-12-17-12-9 0-41 38-24-41-37-41-18 2-18 17 0 8 20 33v2h-30q-17 3-17 18 2 17 17 17h26v2q-20 21-20 30v2q0 15 16 15h8q2 0 35-37 23 41 37 41z m-312-2h3q69-11 69-68v-4q-11-68-69-68h-3q-69 11-69 68v4q11 68 69 68z m164-4q10 0 13-9-64-117-70-120h-6q-8 4-8 12 51 92 69 117h2z m-231-152h402q38-6 38-37v-4q0-22-53-66-124-126-125-127l140-143v-2l-179-182q68-51 68-52v-2h-170q-4 0-4 4v158h2q55-54 55-59h2q5 0 137 135-84 82-143 143v2l162 164h-297v-487q0-62-29-62h-6q-25 6-25 25v567q6 25 25 25z" horiz-adv-x="660.2" />
<glyph glyph-name="Acircumflex" unicode="&#xe89f;" d="m322 851h6q21 0 37-24 0-10-6-12h-7q-13 16-24 16h-6q-21 0-23-27 0-26 35-26h51q0 8 4 8h2q2 0 17-17 0-3-17-18h-2q-4 0-4 8h-22q6-11 8-26-11-45-43-45h-6q-37 8-37 28v2q0 3 6 6h6q15-16 23-16h8q16 0 22 21v8q-4 22-22 22h-41q-10 0-14 8v5q0 6 14 6v2q-8 11-8 26 8 45 43 45z m-199-186h402q38-6 38-37v-4q0-21-45-59l-213-214q30-36 197-200l57 59h2v-158q0-4-4-4h-170v2q0 2 68 52 0 4-244 249v1q2 0 244 245h-297v-487q0-62-29-62h-6q-25 6-25 25v567q6 25 25 25z" horiz-adv-x="660.2" />
<glyph glyph-name="Atilde" unicode="&#xe8a0;" d="m330 811q2 0 78-115v-4h-156v4q76 115 78 115z m-43-97v-2h86v2q-41 60-43 60t-43-60z m-164-49h402q38-6 38-37v-4q0-22-53-66-124-126-125-127l140-143v-2l-179-182q68-51 68-52v-2h-170q-4 0-4 4v158h2q55-54 55-59h2q5 0 137 135-84 82-143 143v2l162 164h-297v-487q0-62-29-62h-6q-25 6-25 25v567q6 25 25 25z" horiz-adv-x="660.2" />
<glyph glyph-name="Adieresis" unicode="&#xe8a1;" d="m537 882h4q230 0 375-209 65-112 65-227v-11q0-213-188-356-116-80-248-80h-12q-212 0-355 187-80 117-80 249v11q0 217 197 364 114 72 242 72z m-369-444q0-190 176-314 96-55 197-55 191 0 315 176 54 96 54 197 0 191-176 315-95 54-197 54-191 0-314-175-55-96-55-198z" horiz-adv-x="1078.1" />
<glyph glyph-name="Aring" unicode="&#xe8a2;" d="m537 884h4q230 0 375-209 65-112 65-226v-12q0-212-188-356-116-80-248-80h-12q-212 0-355 188-80 116-80 248v12q0 216 197 363 114 72 242 72z m-369-443q0-173 147-293 94-66 173-72l18-2v738q-66 0-164-55-174-120-174-316z m406 371v-738q47 0 135 39 131 70 182 211 19 62 19 121 0 187-170 310-87 51-166 57z" horiz-adv-x="1078.1" />
<glyph glyph-name="AE" unicode="&#xe8a3;" d="m537 884h4q230 0 375-209 65-112 65-226v-12q0-212-188-356-116-80-248-80h-12q-212 0-355 188-80 116-80 248v12q0 216 197 363 114 72 242 72z m-369-443q0-191 176-315 96-54 197-54 183 0 305 162 64 98 64 209h-367q-4 0-4 4v367h-2q-191 0-314-176-55-96-55-197z" horiz-adv-x="1078.1" />
<glyph glyph-name="Ccedilla" unicode="&#xe8a4;" d="m537 884h4q230 0 375-209 65-112 65-226v-12q0-212-188-356-116-80-248-80h-12q-212 0-355 188-80 116-80 248v12q0 216 197 363 114 72 242 72z m-369-441q0-175 147-295 94-66 173-72l18-2v738q-70 0-174-61-164-122-164-308z m406 0v-369q67 0 172 60 164 123 164 309h-336z" horiz-adv-x="1078.1" />
<glyph glyph-name="Egrave" unicode="&#xe8a5;" d="m537 884h4q230 0 375-209 65-112 65-226v-12q0-212-188-356-116-80-248-80h-12q-212 0-355 188-80 116-80 248v12q0 216 197 363 114 72 242 72z m-369-443q0-183 162-305 99-64 209-64v742h-2q-191 0-314-176-55-96-55-197z" horiz-adv-x="1078.1" />
<glyph glyph-name="Eacute" unicode="&#xe8a6;" d="m537 884h4q230 0 375-209 65-112 65-226v-12q0-212-188-356-116-80-248-80h-12q-212 0-355 188-80 116-80 248v12q0 216 197 363 114 72 242 72z m-367-408h369v338q-175 0-295-147-48-64-62-128-12-41-12-63z m0-68q6-80 55-162 121-174 314-174v336h-369z" horiz-adv-x="1078.1" />
<glyph glyph-name="Ecircumflex" unicode="&#xe8a7;" d="m537 884h4q230 0 375-209 65-112 65-226v-12q0-212-188-356-116-80-248-80h-12q-212 0-355 188-80 116-80 248v12q0 216 197 363 114 72 242 72z m-369-441h371v371h-2q-183 0-305-162-64-99-64-209z" horiz-adv-x="1078.1" />
<glyph glyph-name="Edieresis" unicode="&#xe8a8;" d="m537 884h4q230 0 375-209 65-112 65-226v-12q0-212-188-356-116-80-248-80h-12q-212 0-355 188-80 116-80 248v12q0 216 197 363 114 72 242 72z m-31-105v-672q0-32 37-35 25 0 31 35v672q0 31-37 35-25 0-31-35z" horiz-adv-x="1078.1" />
<glyph glyph-name="Igrave" unicode="&#xe8a9;" d="m537 884h4q230 0 375-209 65-112 65-226v-12q0-212-188-356-116-80-248-80h-12q-212 0-355 188-80 116-80 248v12q0 216 197 363 114 72 242 72z" horiz-adv-x="1078.1" />
<glyph glyph-name="Iacute" unicode="&#xe8aa;" d="m537 884h4q230 0 375-209 65-112 65-226v-12q0-212-188-356-116-80-248-80h-12q-212 0-355 188-80 116-80 248v12q0 216 197 363 114 72 242 72z m-234-154v-2q119-122 238-238l236 238q-109 86-240 86-123 0-234-84z m-51-51q-84-109-84-238 0-130 88-236l234 236q-119 121-238 238z m338-238q117-120 234-235h2q84 110 84 239 0 121-82 232h-2q-123-121-236-236z m-51-49l-234-236v-2q110-82 236-82 123 0 234 84-121 123-236 236z" horiz-adv-x="1078.1" />
<glyph glyph-name="Icircumflex" unicode="&#xe8ab;" d="m481 880h11q119 0 198-115l1-12v-2q-6-27-25-27h-8q-18 0-41 39-58 55-121 55h-15q-105 0-159-117-7-31-7-55v-4q0-106 113-160 26-12 127-12h236v47q1 4 4 4 90-70 90-80v-2q0-7-80-74-8-6-12-6l-2 4v43h-143q73-75 73-170 0-138-139-215-52-20-92-20h-11q-94 0-168 77-32 34-32 52 5 30 26 30h6q19 0 43-41 57-55 121-55h15q99 0 153 105 13 29 13 71 0 97-97 152-28 14-47 14h-375q-39 0-39 31v2q0 27 33 31h197q-78 76-78 176 0 141 141 215 48 19 90 19z m802-73h4q28-8 28-28v-8q-8-22-344-744-11-27-33-27h-4q-28 8-28 27v8q6 18 352 760 12 12 25 12z m446 9h9q84-91 84-100l-4-2h-48v-244h240v53q0 4 4 4 74-59 97-84v-4q-1-13-60-59-31-31-39-31l-2 4v49h-240v-309q-6-33-34-33h-2q-33 5-33 33v309h-312q-33 5-33 33v2q5 33 33 33h312v244h-53q-3 0-3 4 59 75 84 98z" horiz-adv-x="2209" />
<glyph glyph-name="Idieresis" unicode="&#xe8ac;" d="m1471 808h4q27-8 27-27v-8q-8-22-344-744-10-28-33-28h-4q-27 8-27 28v8q5 18 351 759 12 12 26 12z m-1319-152h774q46 0 55-51v-4q-8-53-53-53h-781q-49 12-49 49v10q9 49 54 49z m1596-41h12q108 0 183-100 76 100 184 100h12q111 0 183-102 32-51 32-101v-12q0-117-129-186-50-17-86-17h-12q-108 0-184 99-75-99-183-99h-12q-111 0-183 101-32 51-32 102v12q0 116 129 185 49 18 86 18z m-152-211q0-94 103-139 26-8 43-8h24q82 0 132 88 14 31 14 63 0 93-103 138-26 8-43 8h-24q-82 0-133-88-13-31-13-62z m379 0q0-94 103-139 26-8 43-8h24q82 0 132 88 14 31 14 63 0 93-103 138-26 8-43 8h-24q-82 0-133-88-13-31-13-62z m-1823 56h774q46 0 55-50v-4q-8-53-53-53h-781q-49 12-49 49v10q9 48 54 48z m0-197h774q46 0 55-51v-4q-8-52-53-52h-781q-49 12-49 49v9q9 49 54 49z" horiz-adv-x="2451.2" />
<glyph glyph-name="Eth" unicode="&#xe8ad;" d="m231 522h1q93 0 129-100 4-15 4-33v-2q0-71-95-185-68-59-125-71l-26-4v4q81 40 121 121v2h-9q-93 0-129 100-4 16-4 33v2q0 93 99 129 16 4 34 4z" horiz-adv-x="462.9" />
<glyph glyph-name="Ntilde" unicode="&#xe8ae;" d="m225 461h11q78 0 120-86 7-24 7-41v-12q0-77-86-119-24-8-41-8h-11q-77 0-119 86-8 25-8 41v12q0 77 86 119 24 8 41 8z" horiz-adv-x="460.9" />
<glyph glyph-name="Ograve" unicode="&#xe8af;" d="m193 497h6q19 0 67-66l45-51q72 94 99 115 11 2 16 2 25 0 31-33v-6q0-13-70-92l-2-4h101q34-6 34-33v-2q0-26-30-33h-107q74-87 74-98v-4q-7-33-29-33h-12q-17 1-68 70l-39 43q-77-94-100-113l-12-2h-2q-33 6-33 33v2q0 18 53 75l21 27h-109q-29 7-29 33v2q5 33 33 33h103q-74 86-74 96v8q0 24 33 31z" horiz-adv-x="617.2" />
<glyph glyph-name="Oacute" unicode="&#xe8b0;" d="m98 724h685v-4q-247-478-340-670h-2q-3 2-193 377-150 289-150 297z m111-64l231-463q3 0 232 463h-463z" horiz-adv-x="880.9" />
<glyph glyph-name="Ocircumflex" unicode="&#xe8b1;" d="m131 776h480q34-6 34-33v-22q0-21-57-70-245-243-246-246 7-12 256-258h2q11 21 43 60h2v-156q0-4-4-4h-157v2l65 49q-112 116-303 307 3 0 303 302h-383v-626q-5-34-33-34h-2q-33 6-33 34v662q5 33 33 33z" horiz-adv-x="742.2" />
<glyph glyph-name="Otilde" unicode="&#xe8b2;" d="m525 494h8q223 0 373-201 55-97 55-123v-4q-6-33-33-33h-797q-33 6-33 33v4q14 78 105 185 143 139 322 139z m-339-293h687q-64 136-207 195-69 26-141 26-182 0-310-166z" horiz-adv-x="1058.6" />
<glyph glyph-name="Odieresis" unicode="&#xe8b3;" d="m525 653h12q127 0 205-123 24-37 33-108 57-34 112-105 56-71 74-147v-4q-6-33-33-33h-797q-33 6-33 33v4q12 78 109 190 72 64 82 64 0 99 100 184 69 45 136 45z m-150-186q73 28 150 28h8q77 0 158-30-48 114-160 114-102 0-154-104-2-3-2-8z m-189-265h687q-63 136-211 197-71 23-135 23-189 0-316-172z" horiz-adv-x="1058.6" />
<glyph glyph-name="multiply" unicode="&#xe8b4;" d="m525 653h12q127 0 205-123 24-37 33-108 86-59 141-144 32-56 45-108v-4q-6-33-33-33h-797q-33 6-33 33v4q12 78 109 190 72 64 82 64 0 99 100 184 69 45 136 45z m-150-186q84 28 123 28v80q-67-17-96-59-21-24-27-49z m186 108v-78q0-4 68-12l62-20q-24 68-91 100-29 10-39 10z m-375-373h687q-16 42-74 107-87 80-158 96-32 11-80 15v-45q-5-31-32-31-31 7-31 29v47h-2q-87 0-203-80-88-82-107-138z" horiz-adv-x="1058.6" />
<glyph glyph-name="Oslash" unicode="&#xe8b5;" d="m535 666h8q159 0 270-138 28-40 46-90h88q34-5 34-33v-2q-6-33-34-33h-191v-2q0-144-133-217-43-18-78-18h-12q-115 0-187 127-24 55-24 108v2h-191q-33 5-33 33v2q5 33 33 33h86q3 4 27 59 112 169 291 169z m-238-228h59q21 0 33-31 0-7-2-41 0-91 88-147 35-15 66-15 95 0 143 113 7 36 7 51-1 29-1 41 13 29 33 29h58q-83 156-242 156t-242-156z" horiz-adv-x="1078.1" />
<glyph glyph-name="Ugrave" unicode="&#xe8b6;" d="m131 468h182q33-6 33-32 0-8-2-42 0-100 99-167 48-25 98-25 114 0 178 119 15 43 15 74-2 30-2 43 0 23 34 30h181q34-6 34-33v-2q-6-34-34-34h-146v-4q0-152-153-236-54-23-107-23h-4q-153 0-236 152-24 54-24 107v4h-146q-33 6-33 34v2q5 33 33 33z" horiz-adv-x="1078.1" />
<glyph glyph-name="Uacute" unicode="&#xe8b7;" d="m131 398h810q34-5 34-33v-2q-6-33-34-33h-810q-33 5-33 33v2q5 33 33 33z" horiz-adv-x="1072.3" />
<glyph glyph-name="Ucircumflex" unicode="&#xe8b8;" d="m131 397h201q4-1 4-4v-61q0-3-4-3h-201q-33 5-33 33v2q5 33 33 33z m277 0h262q4-1 4-4v-61q0-3-4-3h-262q-4 0-4 3v61q1 4 4 4z m338 0h201q34-5 34-33v-2q-6-33-34-33h-201q-4 0-4 3v61q1 4 4 4z" horiz-adv-x="1078.1" />
<glyph glyph-name="Udieresis" unicode="&#xe8b9;" d="m131 641h240q33 0 39-57 43-89 129-89 75 0 119 74 6 10 20 58 13 14 27 14h240q34-5 34-33v-2q-6-33-34-33h-209q-2 0-19-41-22-37-47-55v-2q92-27 168-94 91-89 109-148 21-39 24-63v-4q-6-33-33-33h-797q-34 6-34 33v4q15 79 104 184 98 91 160 107 33 13 35 16-31 24-45 53-9 15-19 43h-211q-33 5-33 33v2q5 33 33 33z m64-439h688q-53 114-172 179-85 41-174 41-191 0-316-174-11-16-26-46z" horiz-adv-x="1076.2" />
<glyph glyph-name="Yacute" unicode="&#xe8ba;" d="m281 684h496q34-5 34-33v-2q0-24-57-59l-135-103v-2q139-31 219-113 75-75 102-139 21-52 21-63v-4q-6-33-33-33h-797q-33 6-33 33v4q36 123 117 196 87 80 160 101 49 18 65 18v2q-176 133-188 144-4 13-4 18v2q5 33 33 33z m104-68v-2q4-1 144-108 140 107 145 108v2h-289z m-199-414h687q-53 115-172 179-85 41-174 41-192 0-316-174-11-16-25-46z" horiz-adv-x="1058.6" />
<glyph glyph-name="Thorn" unicode="&#xe8bb;" d="m424 690h6q29-8 29-29v-10q0-17-94-104-43-46-150-150h730q34-5 34-33v-2q-6-33-34-33h-814q-33 5-33 33v2q0 19 47 58 262 266 267 266z" horiz-adv-x="1076.2" />
<glyph glyph-name="germandbls" unicode="&#xe8bc;" d="m424 692h6q23 0 31-35 0-22-80-94-72-74-164-164h96q291 291 294 291l12 2h6q29-8 29-29v-10q0-17-93-104-43-46-151-150h535q34-5 34-33v-4q-6-33-34-33h-814q-33 5-33 33v4q0 19 47 58 262 266 267 266z" horiz-adv-x="1076.2" />
<glyph glyph-name="agrave" unicode="&#xe8bd;" d="m129 693h2q20 0 29-28l-2-19v-33q0-143 114-205 32-10 54-10 92 0 153 141 21 71 21 138 16 16 25 16h4q32-4 32-31v-12q0-144 99-227 36-25 71-25h9q85 0 137 105 23 50 23 114v25q0 8-2 22 0 23 32 29 27 0 31-33v-32q0-173-117-267-50-35-108-35-117 0-201 156-4 14-8 14-48-117-148-159-27-9-59-11-109 0-181 127-41 79-41 175v32q4 33 31 33z" horiz-adv-x="1058.6" />
<glyph glyph-name="aacute" unicode="&#xe8be;" d="m469 884h6q24 0 33-39 0-25-68-94-235-283-258-357-16-33-16-75 0-83 63-148 40-41 97-41 106 0 160 115 8 16 16 57 12 21 35 21 28 0 33-43v-2q-7-68-56-138-79-92-182-92h-8q-136 0-209 162-17 52-17 98v11q0 100 95 229 75 117 252 326 13 10 24 10z" horiz-adv-x="668" />
<glyph glyph-name="acircumflex" unicode="&#xe8bf;" d="m467 886h8q26 0 33-41 0-20-41-62-285-331-295-418-3 0-6-43 0-104 90-170 26-20 70-20 93 0 151 94 18 34 25 78 13 22 35 22 31 0 41-69 50-123 151-123 95 0 152 100 16 29 23 74 14 19 26 20h11q26 0 32-41 0-72-76-164-74-71-163-71h-9q-116 0-188 121h-2q-81-123-203-123h-8q-123 0-197 137-29 60-29 123v12q0 100 99 234 65 104 252 324 14 6 18 6z" horiz-adv-x="1070.3" />
<glyph glyph-name="atilde" unicode="&#xe8c0;" d="m129 750h2q20 0 29-27l-2-19v-38q0-121 102-177 34-14 64-14h6q95 0 151 131 19 65 19 129 16 15 25 15h4q32-3 32-31v-12q0-132 89-205 39-27 75-27h6q1 0 1-2l4 2h8q71 0 123 74 33 54 33 123v28q0 8-2 21 0 24 32 29 27 0 31-33v-31q0-195-150-270-37-13-67-13h-12q-61 0-128 58-8-16-8-25 120-33 176-109 48-56 66-145 2-7 2-16v-1q-9-32-31-32h-6q-33 0-37 53-3 46-69 121-74 66-170 66-136 0-216-132-18-38-26-90-13-18-31-18h-2q-35 8-35 35 20 106 76 168 81 82 158 96 0 3 12 4-10 21-10 25-68-58-131-58-131 0-199 146-25 66-25 137v31q4 33 31 33z" horiz-adv-x="1058.6" />
<glyph glyph-name="adieresis" unicode="&#xe8c1;" d="m469 782q32 0 35-43 0-22-74-86-185-181-229-240h717q33-6 33-34-11-76-41-129-73-117-176-117h-3q-118 0-204 160l-2 10q-24-46-43-72-80-98-166-98-125 0-197 158-12 31-21 86 0 38 222 272 126 131 139 133h10z m-303-438q22-79 76-115 40-23 78-23 95 0 153 138h-307z m410 0q33-91 98-125 25-13 51-13h9q92 0 143 119 6 13 6 19h-307z" horiz-adv-x="1048.8" />
<glyph glyph-name="aring" unicode="&#xe8c2;" d="m131 743h6q20-7 347-198 45-27 53-27 13 0 65 31 319 187 339 194h6q34-6 34-34v-543q-6-33-34-33h-2q-33 6-33 33v483q-362-209-365-209h-14q-8 0-361 207-2 0-6 2v-483q-5-33-33-33h-2q-33 6-33 33v543q5 34 33 34z" horiz-adv-x="1078.1" />
<glyph glyph-name="ae" unicode="&#xe8c3;" d="m498 844h2q35-5 35-35v-2q0-18-53-76-139-168-152-229-3 0-4-29 0-96 86-133 10-2 20-2h9q79 0 114 94 7 37 35 37h2q33-5 33-33v-2q0-52-60-121-54-51-125-51h-2q-114 0-166 139-10 31-10 62v10q0 87 111 229 26 42 104 134 10 8 21 8z m-365-455h4q25 0 56-58 105-124 252-124 172 0 280 170 11 12 25 12h4q35-7 35-35v-4q-8-44-99-129-112-88-241-88h-11q-182 0-309 160-31 44-31 57v4q7 35 35 35z" horiz-adv-x="886.7" />
<glyph glyph-name="ccedilla" unicode="&#xe8c4;" d="m783 671h6q28-5 96-82 61-68 92-197 2-8 2-18v-12q-6-33-34-33h-814q-33 5-33 33v2q5 33 33 33h771q-35 128-121 198-31 18-31 39v4q5 33 33 33z" horiz-adv-x="1076.2" />
<glyph glyph-name="egrave" unicode="&#xe8c5;" d="m531 671h4q26 0 100-84 72-92 88-190h181q-35 128-121 198-31 18-31 39v4q5 33 33 33h6q28-5 96-82 61-68 92-197 2-8 2-18v-12q-6-33-34-33h-802q-39 0-47 31v6q8 31 47 31h505q-35 128-121 198-31 18-31 39v4q6 33 33 33z" horiz-adv-x="1078.1" />
<glyph glyph-name="eacute" unicode="&#xe8c6;" d="m145 548h802q34-5 34-33v-12q-8-84-71-185-80-102-119-112h-6q-33 6-33 34v4q0 21 45 50 75 79 100 153l7 33h-759q-39 0-47 31v6q8 31 47 31z" horiz-adv-x="1078.1" />
<glyph glyph-name="ecircumflex" unicode="&#xe8c7;" d="m424 887h10q132 0 207-137 19-47 19-95v-6q0-111-119-209-386-389-389-389-7-4-15-4h-4q-35 7-35 35v4q0 21 54 69 407 406 409 412 23 45 23 76v20q0 86-100 138-33 10-60 10-78 0-160-100-68-70-82-70h-8q-29 0-35 37 0 21 45 59 122 131 154 131 41 19 86 19z" horiz-adv-x="757.8" />
<glyph glyph-name="edieresis" unicode="&#xe8c8;" d="m223 720h11q69 0 112-73 13-26 13-50v-16q0-60-113-176l-6-8h672q33-5 33-33v-2q-5-33-33-33h-754q-33 5-33 33v4q0 11 43 53 129 129 129 160v10q0 53-66 64-57 0-69-72-14-16-29-16h-2q-33 6-33 34 0 58 64 103 32 18 61 18z" horiz-adv-x="1043" />
<glyph glyph-name="igrave" unicode="&#xe8c9;" d="m354 824h11q137 0 194-127 13-35 13-73v-5q0-82-58-147l-291-353h508q33-6 33-34v-2q-6-33-33-33h-586q-34 6-34 33v2q0 19 61 82 297 357 297 360 33 49 33 97 0 86-94 122-18 5-35 5h-23q-104 0-168-109-15-35-22-90-12-17-29-17h-2q-28 0-31 33 0 127 125 217 66 39 131 39z" horiz-adv-x="861.3" />
<glyph glyph-name="iacute" unicode="&#xe8ca;" d="m129 753h6q126 0 197-129 20-46 20-88v-10q0-69-47-132h470q-46 63-46 132v10q0 126 128 197 46 20 88 20h6q31-5 31-31v-2q0-34-56-34-45 0-104-60-31-48-31-96 0-94 96-146 10-11 10-20v-8q-8-27-28-27h-658q-27 8-27 27v8q0 17 54 49 51 53 51 119 0 100-107 149l-69 11q-15 11-15 28v2q5 31 31 31z" horiz-adv-x="1080.1" />
<glyph glyph-name="icircumflex" unicode="&#xe8cb;" d="m945 753h6q31-5 31-31v-2q0-34-56-34-45 0-104-60-31-48-31-96 0-94 96-146 10-11 10-20v-8q-8-27-28-27h-740q-31 4-31 31v2q5 32 31 32h646q-46 63-46 132v10q0 126 128 197 46 20 88 20z" horiz-adv-x="1080.1" />
<glyph glyph-name="idieresis" unicode="&#xe8cc;" d="m262 745h6q83 0 125-96 4-21 4-27v-20q0-42-63-133-74-110-74-135-2-7-2-17v-4q0-83 76-109 14 0 14-2 63 0 88 70 0 47 35 47h2q35 0 35-53 30-62 72-62 75 0 102 84 10 21 27 21h8q23 0 29-37-17-71-56-102-46-37-96-37-76 0-121 78-53-78-131-78h-6q-90 0-135 117-6 32-6 53 0 63 73 164 72 109 72 135v4q-15 76-76 76h-8q-51 0-90-80-21-35-37-35h-6q-25 7-25 23v4q0 13 47 82 43 69 117 69z" horiz-adv-x="843.8" />
</font>
</defs>
</svg>
