<?xml version="1.0" standalone="no"?><!DOCTYPE svg PUBLIC "-//W3C//DTD SVG 1.1//EN" "http://www.w3.org/Graphics/SVG/1.1/DTD/svg11.dtd"><svg class="icon" width="200px" height="200.00px" viewBox="0 0 1024 1024" version="1.1" xmlns="http://www.w3.org/2000/svg"><path fill="#0c66fd" d="M335.722 345.727c0-4.507 1.718-9.013 5.154-12.449 3.436-3.437 7.942-5.154 12.451-5.154h317.020c4.507 0 9.014 1.718 12.451 5.154s5.179 7.942 5.179 12.449v317.008c0 4.507-1.742 9.013-5.179 12.449-3.436 3.436-7.942 5.179-12.451 5.179h-317.019c-4.507 0-9.014-1.718-12.451-5.179-3.437-3.436-5.154-7.942-5.154-12.449v-317.008h-0.001z"  /><path fill="#0c66fd" d="M511.999 2.050c-281.661 0-509.982 228.313-509.982 509.937 0 281.65 228.321 509.962 509.982 509.962 281.661 0 509.982-228.313 509.982-509.937 0-281.649-228.321-509.962-509.982-509.962zM511.999 904.717c-216.891 0-392.746-175.821-392.746-392.705 0-216.908 175.854-392.729 392.746-392.729 216.917 0 392.748 175.821 392.748 392.729-0.001 216.883-175.83 392.705-392.748 392.705z"  /></svg>